<svg width="24" height="24" viewBox="0 0 24 24" fill="none" xmlns="http://www.w3.org/2000/svg">
    <mask id="ocg9oeam7a" style="mask-type:alpha" maskUnits="userSpaceOnUse" x="0" y="0" width="24" height="24">
        <path fill="#D9D9D9" d="M0 0h24v24H0z"/>
    </mask>
    <g mask="url(#ocg9oeam7a)">
        <path d="M9.95 2.75A.726.726 0 0 1 9.2 2a.728.728 0 0 1 .75-.75h4.1c.217 0 .396.07.538.212A.731.731 0 0 1 14.8 2a.728.728 0 0 1-.75.75h-4.1zM12 13.8a.728.728 0 0 0 .75-.75v-4.1a.731.731 0 0 0-.212-.538A.731.731 0 0 0 12 8.2a.728.728 0 0 0-.75.75v4.1a.726.726 0 0 0 .75.75zm0 7.7a8.175 8.175 0 0 1-3.3-.675A8.675 8.675 0 0 1 6 19a8.676 8.676 0 0 1-1.825-2.7A8.175 8.175 0 0 1 3.5 13c0-1.167.225-2.267.675-3.3A8.676 8.676 0 0 1 6 7a8.676 8.676 0 0 1 2.7-1.825A8.175 8.175 0 0 1 12 4.5c1 0 1.963.17 2.888.512.925.342 1.787.83 2.587 1.463l.75-.75c.133-.133.3-.2.5-.2s.375.075.525.225a.72.72 0 0 1 .225.525.72.72 0 0 1-.225.525l-.725.725a9.403 9.403 0 0 1 1.463 2.588c.341.925.512 1.887.512 2.887a8.175 8.175 0 0 1-.675 3.3A8.676 8.676 0 0 1 18 19a8.676 8.676 0 0 1-2.7 1.825 8.175 8.175 0 0 1-3.3.675z" fill="#7E7C8C"/>
    </g>
</svg>
