<svg width="44" height="44" viewBox="0 0 44 44" fill="none" xmlns="http://www.w3.org/2000/svg">
    <mask id="krg8ivkoza" style="mask-type:alpha" maskUnits="userSpaceOnUse" x="8" y="8" width="28" height="28">
        <path fill="#D9D9D9" d="M8 8h28v28H8z"/>
    </mask>
    <g mask="url(#krg8ivkoza)">
        <path d="m20.775 24.421-1.837-1.896a1.003 1.003 0 0 0-.642-.233.893.893 0 0 0-.613.233.912.912 0 0 0-.277.627.81.81 0 0 0 .248.627l2.392 2.392a.989.989 0 0 0 .729.292c.292 0 .545-.098.758-.292l4.813-4.842a.84.84 0 0 0 .262-.612.939.939 0 0 0-.262-.642.862.862 0 0 0-.598-.248.81.81 0 0 0-.627.248l-4.346 4.346zM22 33.084a9.538 9.538 0 0 1-3.85-.788 10.123 10.123 0 0 1-3.15-2.13 10.17 10.17 0 0 1-2.13-3.135c-.524-1.196-.787-2.484-.787-3.864s.263-2.669.788-3.864A10.167 10.167 0 0 1 15 16.167a10.122 10.122 0 0 1 3.15-2.13A9.538 9.538 0 0 1 22 13.25c1.38 0 2.674.263 3.88.788a10.12 10.12 0 0 1 3.15 2.129 9.95 9.95 0 0 1 2.113 3.136c.516 1.195.774 2.483.774 3.864 0 1.38-.258 2.668-.774 3.864a9.953 9.953 0 0 1-2.114 3.136 10.121 10.121 0 0 1-3.15 2.129 9.609 9.609 0 0 1-3.879.788zm-9.975-16.567a.72.72 0 0 1-.597.247.809.809 0 0 1-.599-.276.765.765 0 0 1-.262-.599c0-.242.087-.451.262-.626l3.296-3.296a.791.791 0 0 1 .613-.249c.233.01.437.103.612.278a.81.81 0 0 1 .233.598.911.911 0 0 1-.233.627l-3.325 3.296zm19.95-.03-3.325-3.295a.836.836 0 0 1-.218-.613.842.842 0 0 1 .247-.583.855.855 0 0 1 .627-.263c.243 0 .443.088.598.263l3.325 3.296a.76.76 0 0 1 .218.597.86.86 0 0 1-.247.599.856.856 0 0 1-.628.262.763.763 0 0 1-.597-.262z" fill="#fff" fill-opacity="current"/>
    </g>
</svg>
