<svg width="24" height="24" viewBox="0 0 24 24" fill="none" xmlns="http://www.w3.org/2000/svg">
    <mask id="stgtxvp22a" style="mask-type:alpha" maskUnits="userSpaceOnUse" x="0" y="0" width="24" height="24">
        <path fill="#D9D9D9" d="M0 0h24v24H0z"/>
    </mask>
    <g mask="url(#stgtxvp22a)">
        <path d="M14.75 18.5c-.417 0-.77-.146-1.062-.438A1.444 1.444 0 0 1 13.25 17V7c0-.417.146-.77.438-1.062A1.444 1.444 0 0 1 14.75 5.5H17c.417 0 .77.146 1.062.438.292.291.438.645.438 1.062v10c0 .417-.146.77-.438 1.062A1.444 1.444 0 0 1 17 18.5h-2.25zM7 18.5c-.417 0-.77-.146-1.062-.438A1.444 1.444 0 0 1 5.5 17V7c0-.417.146-.77.438-1.062A1.444 1.444 0 0 1 7 5.5h2.25c.417 0 .77.146 1.062.438.292.291.438.645.438 1.062v10c0 .417-.146.77-.438 1.062a1.444 1.444 0 0 1-1.062.438H7z" fill="#fff"/>
    </g>
</svg>
