<svg width="24" height="24" viewBox="0 0 24 24" fill="none" xmlns="http://www.w3.org/2000/svg">
    <mask id="5gvo9l7pua" style="mask-type:alpha" maskUnits="userSpaceOnUse" x="0" y="0" width="24" height="24">
        <path fill="#D9D9D9" d="M0 0h24v24H0z"/>
    </mask>
    <g mask="url(#5gvo9l7pua)">
        <path d="M8.3 17.5c-.5 0-.925-.175-1.275-.525A1.736 1.736 0 0 1 6.5 15.7V8.3c0-.5.175-.925.525-1.275.35-.35.775-.525 1.275-.525h7.4c.5 0 .925.175 1.275.525.35.35.525.775.525 1.275v7.4c0 .5-.175.925-.525 1.275-.35.35-.775.525-1.275.525H8.3z" fill="#fff"/>
    </g>
</svg>
