<svg width="12" height="9" viewBox="0 0 12 9" fill="none" xmlns="http://www.w3.org/2000/svg">
<path d="M4.16673 6.46669L9.57506 1.05836C9.74312 0.890302 9.95701 0.806274 10.2167 0.806274C10.4765 0.806274 10.6903 0.890302 10.8584 1.05836C11.0265 1.22641 11.1105 1.4403 11.1105 1.70002C11.1105 1.95975 11.0265 2.17364 10.8584 2.34169L4.8084 8.39169C4.62506 8.57502 4.41118 8.66669 4.16673 8.66669C3.92229 8.66669 3.7084 8.57502 3.52507 8.39169L1.14173 6.00836C0.973676 5.8403 0.889648 5.62641 0.889648 5.36669C0.889648 5.10697 0.973676 4.89308 1.14173 4.72502C1.30979 4.55697 1.52368 4.47294 1.7834 4.47294C2.04312 4.47294 2.25701 4.55697 2.42507 4.72502L4.16673 6.46669Z" fill="#3B3B44"/>
</svg>
