<svg width="24" height="24" viewBox="0 0 24 24" fill="none" xmlns="http://www.w3.org/2000/svg">
    <mask id="vb10k8o9ua" style="mask-type:alpha" maskUnits="userSpaceOnUse" x="0" y="0" width="24" height="24">
        <path fill="#fff" d="M0 0h24v24H0z"/>
    </mask>
    <g mask="url(#vb10k8o9ua)">
        <path d="M9.55 17.275a.922.922 0 0 1-.337-.063.811.811 0 0 1-.288-.187L4.75 12.85a.694.694 0 0 1-.213-.538.836.836 0 0 1 .213-.537c.15-.15.33-.225.538-.225.208 0 .379.075.512.225l3.75 3.75 8.65-8.65a.669.669 0 0 1 .525-.225c.217 0 .392.075.525.225.15.15.225.329.225.537a.734.734 0 0 1-.225.538l-9.075 9.075a.813.813 0 0 1-.287.187.93.93 0 0 1-.338.063z" fill="#66FFA6"/>
    </g>
</svg>
