<svg width="14" height="14" viewBox="0 0 14 14" fill="none" xmlns="http://www.w3.org/2000/svg">
<path d="M7.00002 8.04999L1.92502 13.125C1.79169 13.2583 1.62102 13.329 1.41302 13.337C1.20436 13.3457 1.02502 13.275 0.875024 13.125C0.725024 12.975 0.650024 12.8 0.650024 12.6C0.650024 12.4 0.725024 12.225 0.875024 12.075L5.95002 6.99999L0.875024 1.92499C0.741691 1.79166 0.671024 1.62066 0.663024 1.41199C0.654358 1.20399 0.725024 1.02499 0.875024 0.874994C1.02502 0.724994 1.20002 0.649994 1.40002 0.649994C1.60002 0.649994 1.77502 0.724994 1.92502 0.874994L7.00002 5.94999L12.075 0.874994C12.2084 0.74166 12.3794 0.670661 12.588 0.661994C12.796 0.653994 12.975 0.724994 13.125 0.874994C13.275 1.02499 13.35 1.19999 13.35 1.39999C13.35 1.59999 13.275 1.77499 13.125 1.92499L8.05002 6.99999L13.125 12.075C13.2584 12.2083 13.329 12.379 13.337 12.587C13.3457 12.7957 13.275 12.975 13.125 13.125C12.975 13.275 12.8 13.35 12.6 13.35C12.4 13.35 12.225 13.275 12.075 13.125L7.00002 8.04999Z" fill="white"/>
</svg>
