<svg width="89" height="76" viewBox="0 0 89 76" fill="none" xmlns="http://www.w3.org/2000/svg">
<path d="M40.5023 39.0958C37.819 36.6181 34.8148 36.002 34.8148 36.002C32.8006 35.5146 30.4587 35.4334 27.871 35.6365C20.3468 36.2254 12.6929 41.0793 12.5358 49.257C12.3788 57.4754 20.9203 60.5962 27.83 59.8245C35.0333 59.0189 43.172 54.6457 43.1652 46.3529C43.1652 43.3877 42.2434 40.8762 40.5023 39.1026V39.0958ZM27.8505 52.1138H27.8437C22.4497 52.6419 20.8657 51.0104 20.8794 48.4176C20.893 45.4863 22.4907 43.5231 27.8642 43.0086C33.2376 42.4874 34.8285 44.1459 34.8285 47.0637C34.8285 49.6497 33.2376 51.579 27.8505 52.1138Z" fill="white"/>
<path d="M20.6335 32.5631C21.009 32.5292 21.3094 32.1907 21.3094 31.8116C21.3094 31.1414 21.3095 30.803 21.3163 30.1328V30.0651C21.3163 28.7111 21.3231 28.0342 21.3299 26.6802C21.3299 26.3011 21.0295 26.0303 20.6608 26.0642C15.7039 26.5516 13.2185 26.8089 8.13869 27.3437L8.16601 22.6861C12.7816 22.1919 15.0347 21.955 19.5206 21.515C19.8961 21.4811 20.1965 21.1426 20.1965 20.7635C20.2307 14.3595 20.2443 11.1642 20.2785 4.76008C20.2785 4.38098 19.9849 4.10342 19.6162 4.14404C12.3173 4.85485 8.67126 5.2678 0.730571 6.26294C0.327733 6.31033 0 6.65558 0 7.03468V12.1255C0 12.4978 0.327733 12.7618 0.723743 12.7144C5.78994 12.1052 8.2138 11.8276 13.0001 11.3199C12.9864 13.1883 12.9796 14.1225 12.9659 15.9842C8.41863 16.4648 6.11768 16.7221 1.34507 17.2704C0.949059 17.3178 0.628154 17.6563 0.628154 18.0286C0.628154 24.3785 0.628154 27.5535 0.614499 33.9102C0.614499 34.2826 0.928576 34.5533 1.31776 34.5195C8.29573 33.8154 11.6618 33.4634 18.3803 32.7865C19.2816 32.6985 19.7322 32.6511 20.6335 32.5631Z" fill="white"/>
<path d="M25.0647 32.8136C27.4681 32.5834 28.6698 32.4683 31.0732 32.2517C31.4487 32.2178 31.7491 31.8861 31.7491 31.5138L31.7628 31.5341V20.6214C33.1625 20.5063 33.8589 20.4454 35.2654 20.3303C35.2654 24.69 35.2654 26.8698 35.2722 31.2295C35.2722 31.6018 35.5795 31.8861 35.9482 31.8523C38.413 31.6424 39.6488 31.5476 42.141 31.3581C42.5233 31.331 42.8306 31.0061 42.8306 30.627V9.88473C42.8306 9.49209 42.496 9.18069 42.1 9.20777L35.8799 9.61395C35.518 9.63426 35.2449 9.93889 35.2449 10.2909C35.2449 11.5433 35.2449 10.5549 35.2449 12.9108C33.8384 13.0191 33.142 13.0732 31.7491 13.1883V2.26887C31.7491 1.90331 31.4282 1.61221 31.0595 1.63929C28.6971 1.82207 27.5159 1.92362 25.1535 2.13348C24.7848 2.16732 24.4844 2.49904 24.4844 2.87137C24.4502 12.6468 24.4229 22.4221 24.3888 32.1975C24.3888 32.5766 24.6892 32.8474 25.0579 32.8136H25.0647Z" fill="white"/>
<path d="M42.8305 0.637371C42.8305 0.26504 42.5164 -0.0192854 42.1341 0.00102362C39.6146 0.156726 38.3788 0.237962 35.9208 0.407203C35.5521 0.434282 35.2449 0.752456 35.2449 1.11802C35.2449 2.85782 35.2449 5.28136 35.2449 6.89931C35.2449 7.29195 35.5794 7.60335 35.9754 7.57627L42.1955 7.17009C42.5574 7.14978 42.8305 6.85192 42.8305 6.49313V0.637371Z" fill="#66FFA6"/>
<path d="M48.9346 33.7072C60.3779 32.5902 71.8212 31.4055 83.2714 30.3494C84.4253 30.2411 84.9988 30.1937 86.1527 30.0854C86.5351 30.0516 86.8423 29.7198 86.8355 29.3475C86.8355 28.2237 86.8355 27.6619 86.8218 26.5381C86.8218 25.2993 86.815 24.6764 86.8082 23.4376C86.8082 23.0653 86.4941 22.7877 86.1117 22.8283C83.4557 23.072 82.1312 23.2007 79.482 23.4511V23.4647C79.441 21.163 79.4205 20.0189 79.3796 17.7172C79.3796 17.3449 79.0655 17.0809 78.69 17.1147C76.1978 17.3517 74.9552 17.4668 72.4767 17.7037C72.0943 17.7375 71.7939 18.076 71.8008 18.4484C71.8349 20.7433 71.8554 21.8941 71.8895 24.189C68.1957 24.5478 66.359 24.7238 62.6789 25.0826C62.6447 22.7742 62.6311 21.6233 62.5969 19.3149C62.5969 18.9425 62.2828 18.6718 61.9141 18.7124C59.4425 18.9493 58.2067 19.0712 55.7419 19.3081C55.3663 19.342 55.0591 19.6804 55.0659 20.0595C55.1 22.3612 55.1137 23.5188 55.1478 25.8205C52.6489 26.0642 51.3926 26.1861 48.9004 26.4298C48.5249 26.4636 48.2245 26.8021 48.2245 27.1744C48.2313 29.5438 48.2381 30.7285 48.2518 33.0979C48.2518 33.4702 48.559 33.7478 48.9346 33.7072Z" fill="white"/>
<path d="M49.3169 17.2163C61.1426 16.0586 72.9683 14.9417 84.794 13.8111C85.1763 13.7773 85.4836 13.4456 85.4767 13.0665C85.4631 10.494 85.4563 9.20775 85.4426 6.63528C85.4426 6.26295 85.1285 5.99216 84.7462 6.02601V6.03955C72.9341 7.17685 61.1016 8.25323 49.2828 9.41084C48.9072 9.45146 48.6068 9.78317 48.6068 10.1555C48.6205 12.7347 48.6205 14.0277 48.6341 16.607C48.6341 16.9793 48.9414 17.2569 49.3169 17.2163Z" fill="white"/>
<path d="M58.1658 67.5081C58.1658 66.2083 58.1589 65.5516 58.1521 64.2518H58.1589C66.9941 63.3041 75.8292 62.3157 84.6848 61.5711C85.0671 61.5372 85.3676 61.2123 85.3676 60.8399C85.3334 54.6051 85.3198 51.491 85.2856 45.2562C85.2856 44.8839 84.9716 44.6063 84.596 44.6401C73.1049 45.6421 61.6411 46.9351 50.1636 48.0453C49.7881 48.0791 49.4877 48.4108 49.4877 48.79C49.4945 51.0442 49.5013 52.168 49.5082 54.4223C49.5082 54.7946 49.8154 55.0722 50.1909 55.0383C59.3674 54.1583 68.5371 53.1361 77.7136 52.2357C77.7205 53.5355 77.7273 54.1786 77.7341 55.4784C68.6532 56.372 59.5859 57.3942 50.505 58.2675C50.1295 58.3013 49.8291 58.633 49.8291 59.0054C49.8564 65.5584 49.87 68.8281 49.8905 75.3812C49.8905 75.7535 50.1978 76.031 50.5665 75.9972C59.6815 75.1104 66.8643 74.1355 75.9316 73.2487C76.2798 73.2149 76.5529 72.9238 76.5529 72.5785V66.2557C76.5529 65.8563 76.1979 65.5381 75.795 65.5787C69.3496 66.215 64.6931 66.8108 58.1658 67.5081Z" fill="white"/>
<path d="M86.1391 67.0477C86.1391 66.3775 86.1391 66.0458 86.1254 65.3756C86.1254 65.0033 85.8113 64.7257 85.4358 64.7528C83.3329 64.922 81.2367 65.1116 79.1406 65.3079C78.7924 65.3418 78.5193 65.6328 78.5193 65.9849V72.3145C78.5193 72.7139 78.8675 73.0253 79.2635 72.9847C80.5744 72.8628 81.8854 72.741 83.1963 72.6327C84.1112 72.5582 84.5687 72.5176 85.4836 72.4499C85.8591 72.4228 86.1596 72.0911 86.1596 71.7255C86.1596 71.0621 86.1596 70.7304 86.1459 70.0602C86.1459 68.8552 86.1459 68.2527 86.1391 67.0477Z" fill="#66FFA6"/>
<path d="M88.9725 33.8967C88.9725 33.5244 88.6585 33.2468 88.2761 33.2807C73.7534 34.5872 60.6168 36.0901 46.1078 37.4846C45.7323 37.5185 45.4319 37.8502 45.4387 38.2225C45.4524 40.5851 45.4524 41.7698 45.466 44.1392C45.466 44.5115 45.7733 44.7891 46.142 44.7553C60.6578 43.381 73.7876 41.8172 88.3171 40.5445C88.6994 40.5107 89.0067 40.1857 88.9998 39.8134C88.9862 37.4508 88.9862 36.2661 88.9725 33.8967Z" fill="white"/>
</svg>
