<svg width="24" height="24" viewBox="0 0 24 24" fill="none" xmlns="http://www.w3.org/2000/svg">
    <mask id="6uyggfskra" style="mask-type:alpha" maskUnits="userSpaceOnUse" x="0" y="0" width="24" height="24">
        <path fill="#D9D9D9" d="M0 0h24v24H0z"/>
    </mask>
    <g mask="url(#6uyggfskra)">
        <path d="M8.875 17.125a.72.72 0 0 1-.225-.525c0-.2.075-.375.225-.525L12.95 12 8.875 7.925A.72.72 0 0 1 8.65 7.4c0-.2.075-.375.225-.525A.72.72 0 0 1 9.4 6.65c.2 0 .375.075.525.225l4.5 4.5a.825.825 0 0 1 .188.287.944.944 0 0 1 0 .675.823.823 0 0 1-.188.288l-4.5 4.5a.72.72 0 0 1-.525.225.72.72 0 0 1-.525-.225z" fill="#fff"/>
    </g>
</svg>
