<svg width="24" height="24" viewBox="0 0 24 24" fill="none" xmlns="http://www.w3.org/2000/svg">
    <mask id="n5cm93ysma" style="mask-type:alpha" maskUnits="userSpaceOnUse" x="0" y="0" width="24" height="24">
        <path fill="#fff" d="M0 0h24v24H0z"/>
    </mask>
    
    <g mask="url(#n5cm93ysma)">
        <path d="M12 18.75a.728.728 0 0 1-.75-.75v-5.25H6a.726.726 0 0 1-.75-.75.728.728 0 0 1 .75-.75h5.25V6a.726.726 0 0 1 .75-.75.728.728 0 0 1 .75.75v5.25H18c.217 0 .396.07.538.212a.731.731 0 0 1 .212.538.728.728 0 0 1-.75.75h-5.25V18c0 .217-.07.396-.212.538a.731.731 0 0 1-.538.212z" fill="#1A1B23"/>
    </g>
</svg>
