<svg width="44" height="44" viewBox="0 0 44 44" fill="none" xmlns="http://www.w3.org/2000/svg">
    <mask id="l4j06p6esa" style="mask-type:alpha" maskUnits="userSpaceOnUse" x="8" y="8" width="28" height="28">
        <path fill="#D9D9D9" d="M8 8h28v28H8z"/>
    </mask>
    <g mask="url(#l4j06p6esa)">
        <path d="M24.275 18.325c0-.117.044-.243.13-.38a.796.796 0 0 1 .307-.291 9.713 9.713 0 0 1 1.795-.525 10.188 10.188 0 0 1 1.91-.175c.389 0 .758.024 1.108.073.35.049.71.112 1.08.19.135.019.252.087.35.204a.619.619 0 0 1 .145.408c0 .272-.083.467-.248.583-.165.117-.374.146-.627.088a6.727 6.727 0 0 0-.889-.117c-.302-.02-.608-.029-.92-.029-.563 0-1.117.053-1.662.16a10.62 10.62 0 0 0-1.546.423c-.272.117-.495.117-.67 0-.175-.116-.263-.32-.263-.612zm0 6.387c0-.136.044-.272.13-.408a.795.795 0 0 1 .307-.292 8.896 8.896 0 0 1 1.795-.525 10.49 10.49 0 0 1 1.91-.175c.389 0 .758.025 1.108.074.35.048.71.111 1.08.189a.7.7 0 0 1 .35.233.619.619 0 0 1 .145.409c0 .252-.083.442-.248.568-.165.127-.374.16-.627.102a9.024 9.024 0 0 0-1.808-.175c-.564 0-1.113.054-1.648.16a8.739 8.739 0 0 0-1.531.453c-.292.117-.526.111-.7-.015-.175-.126-.263-.325-.263-.598zm0-3.179c0-.136.044-.272.13-.408a.795.795 0 0 1 .307-.292 9.713 9.713 0 0 1 1.795-.525 10.18 10.18 0 0 1 1.91-.175c.389 0 .758.024 1.108.073.35.049.71.112 1.08.19a.53.53 0 0 1 .35.218.679.679 0 0 1 .145.423c0 .253-.083.443-.248.569-.165.126-.374.15-.627.073a6.744 6.744 0 0 0-.889-.117c-.302-.02-.608-.029-.92-.029-.563 0-1.112.054-1.647.161a8.686 8.686 0 0 0-1.531.452c-.292.116-.526.111-.7-.015-.175-.127-.263-.326-.263-.598zm-1.4 6.504a11.542 11.542 0 0 1 2.712-1.02c.914-.214 1.857-.321 2.83-.321.7 0 1.356.048 1.969.145.612.098 1.2.244 1.764.438a.224.224 0 0 0 .233-.015c.078-.048.117-.13.117-.247V15.992a.314.314 0 0 0-.058-.176.441.441 0 0 0-.175-.145 12.192 12.192 0 0 0-1.881-.525 10.526 10.526 0 0 0-1.97-.175c-.972 0-1.934.136-2.887.408a9.92 9.92 0 0 0-2.654 1.196v11.462zm-.875 2.1c-.233 0-.447-.029-.642-.087a2.786 2.786 0 0 1-.554-.233 10.726 10.726 0 0 0-2.523-1.021 10.531 10.531 0 0 0-2.698-.35 9.271 9.271 0 0 0-4.083.933c-.408.195-.802.165-1.18-.087-.38-.253-.57-.613-.57-1.08V15.554c0-.253.063-.491.19-.715a1.07 1.07 0 0 1 .568-.48c.778-.39 1.6-.677 2.466-.862a12.489 12.489 0 0 1 2.61-.276c1.127 0 2.235.155 3.324.466 1.09.312 2.12.768 3.092 1.371a12.202 12.202 0 0 1 3.092-1.37 12.046 12.046 0 0 1 3.325-.467c.875 0 1.745.092 2.61.276a10.31 10.31 0 0 1 2.465.861c.252.097.442.258.568.48.127.225.19.463.19.716v12.658c0 .467-.194.822-.583 1.066-.39.242-.798.266-1.225.072a10.464 10.464 0 0 0-1.968-.671 9.083 9.083 0 0 0-2.057-.233c-.914 0-1.813.116-2.698.35-.885.233-1.726.573-2.523 1.02-.175.098-.36.175-.554.234a2.228 2.228 0 0 1-.642.087z" fill="#fff" fill-opacity=".3"/>
    </g>
</svg>
