<svg width="24" height="24" viewBox="0 0 24 24" fill="none" xmlns="http://www.w3.org/2000/svg">
    <mask id="pwv9djxdia" style="mask-type:alpha" maskUnits="userSpaceOnUse" x="0" y="0" width="24" height="24">
        <path fill="#D9D9D9" d="M0 0h24v24H0z"/>
    </mask>
    <g mask="url(#pwv9djxdia)">
        <path d="M7.875 16.125a.72.72 0 0 0 .525.225.72.72 0 0 0 .525-.225L12 13.05l3.1 3.1a.653.653 0 0 0 .513.187.736.736 0 0 0 .512-.212.72.72 0 0 0 .225-.525.72.72 0 0 0-.225-.525L13.05 12l3.1-3.1a.654.654 0 0 0 .187-.513.736.736 0 0 0-.212-.512.72.72 0 0 0-.525-.225.72.72 0 0 0-.525.225L12 10.95l-3.1-3.1a.655.655 0 0 0-.512-.188.74.74 0 0 0-.513.213.72.72 0 0 0-.225.525c0 .2.075.375.225.525L10.95 12l-3.1 3.1a.652.652 0 0 0-.187.512c.008.209.079.38.212.513zM12 21.5a9.263 9.263 0 0 1-3.712-.75 9.58 9.58 0 0 1-3.013-2.025 9.58 9.58 0 0 1-2.025-3.013A9.263 9.263 0 0 1 2.5 12c0-1.317.25-2.554.75-3.713a9.583 9.583 0 0 1 2.025-3.012A9.58 9.58 0 0 1 8.288 3.25 9.263 9.263 0 0 1 12 2.5a9.27 9.27 0 0 1 3.713.75 9.583 9.583 0 0 1 3.012 2.025 9.583 9.583 0 0 1 2.025 3.012A9.27 9.27 0 0 1 21.5 12c0 1.317-.25 2.554-.75 3.712a9.58 9.58 0 0 1-2.025 3.013 9.583 9.583 0 0 1-3.012 2.025A9.27 9.27 0 0 1 12 21.5z" fill="#7E7C8C"/>
    </g>
</svg>
