<svg width="24" height="24" viewBox="0 0 24 24" fill="none" xmlns="http://www.w3.org/2000/svg">
    <mask id="1c7j0idlga" style="mask-type:alpha" maskUnits="userSpaceOnUse" x="0" y="0" width="24" height="24">
        <path fill="#D9D9D9" d="M0 0h24v24H0z"/>
    </mask>
    <g mask="url(#1c7j0idlga)">
        <path d="M12 14.65c-.117 0-.229-.017-.337-.05a.605.605 0 0 1-.288-.2L6.85 9.9a.766.766 0 0 1-.2-.525c0-.2.075-.375.225-.525.15-.133.325-.2.525-.2s.375.067.525.2L12 12.925l4.1-4.075c.133-.15.3-.22.5-.213.2.009.375.08.525.213.15.15.225.33.225.537 0 .209-.075.38-.225.513l-4.5 4.5a.605.605 0 0 1-.287.2c-.109.033-.221.05-.338.05z" fill="#fff"/>
    </g>
</svg>
