<svg width="18" height="18" viewBox="0 0 18 18" fill="none" xmlns="http://www.w3.org/2000/svg">
<path d="M15.7209 5.11442L12.3289 1.78155L13.6473 0.474858C13.9292 0.190093 14.2829 0.0466343 14.7082 0.0444804C15.1328 0.0423299 15.4876 0.182202 15.7723 0.464097L17.0035 1.68288C17.2884 1.98144 17.4401 2.33468 17.4589 2.74259C17.4776 3.15116 17.3377 3.49788 17.0391 3.78272L15.7209 5.11442ZM1.48106 17.0367C1.23106 17.0379 1.01829 16.9517 0.842739 16.7779C0.66652 16.6035 0.577778 16.3912 0.576512 16.1412L0.565878 14.0413C0.565287 13.9246 0.585718 13.8122 0.62717 13.704C0.667953 13.5951 0.73809 13.4904 0.837582 13.3899L11.2594 2.86198L14.6515 6.21985L4.22963 16.7478C4.13014 16.8483 4.0265 16.9198 3.91871 16.9623C3.81026 17.0042 3.6977 17.0255 3.58103 17.026L1.48106 17.0367Z" fill="white"/>
</svg>
