<svg width="18" height="20" viewBox="0 0 18 20" fill="none" xmlns="http://www.w3.org/2000/svg">
<path d="M7.088 15.1141L5.05277 13.0994C4.88535 12.9502 4.80111 12.7713 4.80005 12.5626C4.799 12.3546 4.88142 12.1752 5.04733 12.0244C5.19648 11.8569 5.37539 11.7727 5.58406 11.7716C5.79205 11.7706 5.97147 11.853 6.12232 12.0189L7.70527 13.5859L11.3616 9.89237C11.5108 9.72494 11.6897 9.6407 11.8983 9.63964C12.1063 9.63859 12.2858 9.72102 12.4366 9.88692C12.604 10.0361 12.6883 10.215 12.6893 10.4236C12.6904 10.6316 12.6079 10.8111 12.442 10.9619L8.33799 15.1077C8.17217 15.2753 7.96426 15.3596 7.71426 15.3609C7.46426 15.3622 7.25551 15.2799 7.088 15.1141ZM2.08408 19.2895C1.58409 19.292 1.15821 19.1192 0.80644 18.7709C0.454672 18.4227 0.277522 17.9986 0.27499 17.4986L0.207132 4.09878C0.2046 3.59878 0.377446 3.1729 0.725669 2.82114C1.07389 2.46937 1.498 2.29222 1.99799 2.28969L3.39798 2.2826L3.39114 0.932613C3.39004 0.71595 3.45978 0.532261 3.60035 0.381547C3.74159 0.23083 3.92054 0.154923 4.13721 0.153825C4.37054 0.152644 4.55825 0.226694 4.70034 0.375976C4.8431 0.525255 4.91502 0.708227 4.91612 0.924891L4.92296 2.27487L12.4979 2.23651L12.4909 0.861531C12.4899 0.661534 12.564 0.486156 12.7132 0.335398C12.8625 0.184641 13.0371 0.108756 13.2371 0.107743C13.4538 0.106646 13.6331 0.180738 13.7752 0.330021C13.918 0.4793 13.9899 0.653938 13.9909 0.853935L13.9978 2.22892L15.3978 2.22183C15.8978 2.2193 16.3237 2.39214 16.6755 2.74036C17.0272 3.08859 17.2044 3.5127 17.2069 4.01269L17.2748 17.4125C17.2773 17.9125 17.1045 18.3384 16.7562 18.6902C16.408 19.0419 15.9839 19.2191 15.4839 19.2216L2.08408 19.2895ZM2.07649 17.7895L15.4763 17.7216C15.5596 17.7212 15.6305 17.6918 15.6889 17.6336C15.7466 17.5746 15.7752 17.5034 15.7748 17.4201L15.7272 8.02023L1.72737 8.09113L1.77497 17.491C1.77539 17.5743 1.80508 17.6452 1.86405 17.7036C1.92234 17.7613 1.99315 17.7899 2.07649 17.7895Z" fill="white"/>
</svg>
