<svg width="18" height="18" viewBox="0 0 18 18" fill="none" xmlns="http://www.w3.org/2000/svg">
    <mask id="6vkhiv6r8a" style="mask-type:alpha" maskUnits="userSpaceOnUse" x="0" y="0" width="18" height="18">
        <path fill="#D9D9D9" d="M0 0h18v18H0z"/>
    </mask>
    <g mask="url(#6vkhiv6r8a)">
        <path d="M5.269 14.137 3.3 13.725a.644.644 0 0 1-.394-.271.617.617 0 0 1-.112-.46l.187-2.025L1.65 9.45A.614.614 0 0 1 1.463 9c0-.175.062-.325.187-.45l1.331-1.519-.187-2.025a.617.617 0 0 1 .112-.46.644.644 0 0 1 .394-.271l1.969-.413L6.3 2.12a.72.72 0 0 1 .384-.3.647.647 0 0 1 .46.018L9 2.625l1.856-.788a.647.647 0 0 1 .46-.018.72.72 0 0 1 .384.3l1.031 1.743 1.969.413a.644.644 0 0 1 .394.271c.1.144.137.298.112.46l-.187 2.025L16.35 8.55a.614.614 0 0 1 .188.45.614.614 0 0 1-.188.45l-1.331 1.519.187 2.025a.617.617 0 0 1-.112.46.644.644 0 0 1-.394.271l-1.969.412-1.031 1.744a.72.72 0 0 1-.384.3.647.647 0 0 1-.46-.018L9 15.375l-1.856.788a.647.647 0 0 1-.46.018.72.72 0 0 1-.384-.3l-1.031-1.744zm2.475-3.206a.636.636 0 0 0 .469.188.636.636 0 0 0 .468-.188l3.113-3.112a.55.55 0 0 0 .168-.404.55.55 0 0 0-.168-.402.54.54 0 0 0-.394-.17.604.604 0 0 0-.412.17L8.213 9.806l-1.22-1.218a.553.553 0 0 0-.403-.141.554.554 0 0 0-.384.16.54.54 0 0 0-.168.393c0 .15.056.281.168.394l1.538 1.537zm-.656 4.032L9 14.155l1.931.806 1.069-1.8 2.063-.468-.188-2.119L15.262 9l-1.387-1.594.188-2.119L12 4.837l-1.088-1.8L9 3.845l-1.931-.806L6 4.838l-2.062.45.187 2.118L2.738 9l1.387 1.575-.187 2.138 2.062.45 1.088 1.8z" fill="#92CD6E"/>
    </g>
</svg>
