<svg width="328" height="46" viewBox="0 0 328 46" fill="none" xmlns="http://www.w3.org/2000/svg">
<rect width="328" height="46" rx="8" fill="#FEE500"/>
<g clip-path="url(#clip0_347_4488)">
<path d="M122.001 15C117.305 15 113.5 18.0811 113.5 21.8839C113.5 24.3579 115.112 26.5284 117.533 27.7407C117.355 28.4201 116.888 30.2041 116.795 30.5853C116.68 31.0582 116.964 31.0529 117.15 30.9259C117.297 30.8253 119.479 29.3042 120.421 28.6495C120.933 28.7271 121.46 28.7677 121.999 28.7677C126.693 28.7677 130.5 25.6867 130.5 21.8839C130.5 18.0811 126.695 15 122.001 15Z" fill="black"/>
</g>
<path d="M145.376 18.0742H139.702V19.3047H143.865C143.817 19.9541 143.715 20.5625 143.558 21.1436L139.06 21.4238L139.251 22.7363L143.1 22.374C142.382 23.8369 141.104 25.0742 138.964 26.127L139.798 27.2754C144.351 25.0127 145.369 21.8066 145.376 18.0742ZM147.112 29.1895H148.63V22.9414H150.462V21.6973H148.63V16.8574H147.112V29.1895ZM157.476 18.0742H151.802V19.3047H155.965C155.917 19.9541 155.814 20.5625 155.657 21.1436L151.159 21.4238L151.351 22.7363L155.199 22.374C154.481 23.8369 153.203 25.0742 151.063 26.127L151.897 27.2754C156.45 25.0127 157.469 21.8066 157.476 18.0742ZM159.212 29.1895H160.729V22.9414H162.562V21.6973H160.729V16.8574H159.212V29.1895ZM168.769 17.5547C166.137 17.5615 164.182 18.8809 164.188 20.8906C164.182 22.7432 165.774 23.9805 168.017 24.2061V26.4688H163.149V27.7129H174.442V26.4688H169.521V24.2061C171.79 23.9805 173.383 22.7432 173.376 20.8906C173.383 18.8809 171.421 17.5615 168.769 17.5547ZM165.679 20.8906C165.672 19.5986 166.964 18.7783 168.769 18.7852C170.601 18.7783 171.886 19.5986 171.886 20.8906C171.886 22.2236 170.601 23.0234 168.769 23.0234C166.964 23.0234 165.672 22.2236 165.679 20.8906ZM189.864 26.5234H184.942V24.5137H188.812V23.2695H181.429V21.6699H188.524V17.7051H179.884V18.9355H187.021V20.4668H179.911V24.5137H183.438V26.5234H178.571V27.7812H189.864V26.5234ZM200.501 18.0605H191.86V19.291H198.983V19.4551C198.983 21.0615 198.983 22.8525 198.505 25.2793L200.05 25.416C200.501 22.8115 200.501 21.1094 200.501 19.4551V18.0605ZM190.671 27.5215H201.937V26.2773H190.671V27.5215ZM213.065 16.8711H211.534V25.7988H213.065V16.8711ZM202.989 20.7676C202.989 22.5928 204.445 23.8711 206.325 23.8711C208.205 23.8711 209.654 22.5928 209.647 20.7676C209.654 18.9697 208.205 17.6846 206.325 17.6777C204.445 17.6846 202.989 18.9697 202.989 20.7676ZM204.479 20.7676C204.473 19.7012 205.266 19.0039 206.325 19.0039C207.357 19.0039 208.157 19.7012 208.157 20.7676C208.157 21.8613 207.357 22.5449 206.325 22.5449C205.266 22.5449 204.473 21.8613 204.479 20.7676ZM204.89 28.9707H213.407V27.7402H206.421V24.8965H204.89V28.9707Z" fill="black" fill-opacity="0.85"/>
<defs>
<clipPath id="clip0_347_4488">
<rect width="17" height="16" fill="white" transform="translate(113.5 15)"/>
</clipPath>
</defs>
</svg>
