<svg width="18" height="18" viewBox="0 0 18 18" fill="none" xmlns="http://www.w3.org/2000/svg">
    <mask id="07ro6gg9va" style="mask-type:alpha" maskUnits="userSpaceOnUse" x="0" y="0" width="18" height="18">
        <path fill="#D9D9D9" d="M0 0h18v18H0z"/>
    </mask>
    <g mask="url(#07ro6gg9va)">
        <path d="M6.9 15.375a1.363 1.363 0 0 1-.956-.394l-2.925-2.925a1.317 1.317 0 0 1-.29-.44 1.354 1.354 0 0 1-.104-.516V6.9c0-.175.034-.347.103-.516.069-.169.166-.315.29-.44l2.926-2.925a1.363 1.363 0 0 1 .956-.394h4.2a1.363 1.363 0 0 1 .956.394l2.925 2.925a1.363 1.363 0 0 1 .394.956v4.2a1.363 1.363 0 0 1-.394.956l-2.925 2.925a1.363 1.363 0 0 1-.956.394H6.9zm2.1-2.85a.584.584 0 0 0 .431-.169.584.584 0 0 0 .169-.431.584.584 0 0 0-.169-.431.584.584 0 0 0-.431-.169.584.584 0 0 0-.431.169.584.584 0 0 0-.169.431c0 .175.056.319.169.431a.584.584 0 0 0 .431.169zm0-2.606a.547.547 0 0 0 .563-.563V5.963a.548.548 0 0 0-.16-.404A.548.548 0 0 0 9 5.4a.546.546 0 0 0-.563.563v3.393A.544.544 0 0 0 9 9.92zM6.825 14.25h4.35l3.075-3.075v-4.35L11.175 3.75h-4.35L3.75 6.825v4.35l3.075 3.075z" fill="#FF9950"/>
    </g>
</svg>
