<svg width="16" height="15" viewBox="0 0 16 15" fill="none" xmlns="http://www.w3.org/2000/svg">
<path d="M7.73652 7.30617C6.76987 7.31106 5.94315 6.97358 5.25636 6.29372C4.56958 5.61385 4.22374 4.79059 4.21884 3.82394C4.21395 2.85728 4.55143 2.03056 5.2313 1.34378C5.91116 0.656994 6.73442 0.311153 7.70108 0.306258C8.66773 0.301363 9.49445 0.638848 10.1812 1.31871C10.868 1.99858 11.2139 2.82184 11.2188 3.78849C11.2237 4.75514 10.8862 5.58186 10.2063 6.26865C9.52644 6.95543 8.70318 7.30127 7.73652 7.30617ZM1.80009 14.9363C1.36676 14.9385 1.00369 14.7947 0.710888 14.5048C0.417413 14.2143 0.26962 13.8607 0.26751 13.4441L0.263839 12.7191C0.261391 12.2358 0.392444 11.7851 0.656997 11.3671C0.921551 10.9491 1.27823 10.6222 1.72705 10.3866C2.70792 9.89833 3.70207 9.53063 4.7095 9.28352C5.71626 9.03709 6.72797 8.9113 7.74463 8.90615C8.76128 8.901 9.77454 9.01654 10.7844 9.25276C11.7936 9.48965 12.7911 9.84727 13.7769 10.3256C14.2281 10.5567 14.588 10.8799 14.8568 11.2952C15.1256 11.7105 15.2612 12.1598 15.2636 12.6431L15.2673 13.3681C15.2694 13.7848 15.1252 14.1398 14.8347 14.4333C14.5449 14.7261 14.1833 14.8736 13.7499 14.8758L1.80009 14.9363Z" fill="white"/>
</svg>
