<svg width="44" height="44" viewBox="0 0 44 44" fill="none" xmlns="http://www.w3.org/2000/svg">
    <mask id="u0pc3d972a" style="mask-type:alpha" maskUnits="userSpaceOnUse" x="8" y="8" width="28" height="28">
        <path fill="#D9D9D9" d="M8 8h28v28H8z"/>
    </mask>
    <g mask="url(#u0pc3d972a)">
        <path d="M20.775 22.7 22 21.767l1.225.933c.194.175.404.185.628.029.223-.156.296-.36.218-.613l-.496-1.545 1.283-.992c.214-.156.278-.355.19-.599-.087-.242-.248-.364-.481-.364h-1.575l-.496-1.516c-.078-.253-.243-.38-.496-.38s-.418.127-.496.38l-.496 1.516h-1.575c-.252 0-.422.122-.51.364-.087.244-.024.443.19.599l1.283.992-.496 1.545c-.078.253-.005.457.22.613.223.156.441.146.655-.03zm-3.82 10.792a.957.957 0 0 1-.934-.146 1 1 0 0 1-.438-.846v-6.913a8.454 8.454 0 0 1-1.72-2.683 8.564 8.564 0 0 1-.613-3.238c0-2.45.846-4.52 2.537-6.212 1.692-1.692 3.763-2.538 6.213-2.538s4.52.846 6.212 2.538c1.692 1.692 2.538 3.762 2.538 6.212a8.564 8.564 0 0 1-.613 3.238 8.454 8.454 0 0 1-1.72 2.683V32.5a1 1 0 0 1-.438.846.957.957 0 0 1-.933.146L22 31.887l-5.046 1.605zM22 26.667c1.944 0 3.597-.681 4.958-2.042C28.32 23.264 29 21.61 29 19.666c0-1.944-.68-3.597-2.042-4.958-1.36-1.36-3.014-2.042-4.958-2.042-1.944 0-3.597.681-4.958 2.042C15.68 16.07 15 17.722 15 19.666c0 1.945.68 3.598 2.042 4.959 1.36 1.36 3.014 2.041 4.958 2.041z" fill="#fff" fill-opacity="current"/>
    </g>
</svg>
