<svg width="18" height="18" viewBox="0 0 18 18" fill="none" xmlns="http://www.w3.org/2000/svg">
    <mask id="xr6apbiaga" style="mask-type:alpha" maskUnits="userSpaceOnUse" x="0" y="0" width="18" height="18">
        <path fill="#D9D9D9" d="M0 0h18v18H0z"/>
    </mask>
    <g mask="url(#xr6apbiaga)">
        <path d="M9.956 15.656a1.292 1.292 0 0 1-.45.3 1.398 1.398 0 0 1-1.012 0 1.292 1.292 0 0 1-.45-.3l-5.7-5.7a1.292 1.292 0 0 1-.3-.45 1.398 1.398 0 0 1 0-1.012c.062-.163.162-.313.3-.45l5.7-5.7c.137-.138.287-.238.45-.3a1.398 1.398 0 0 1 1.012 0c.163.062.313.162.45.3l5.7 5.7c.138.137.238.287.3.45a1.398 1.398 0 0 1 0 1.012 1.292 1.292 0 0 1-.3.45l-5.7 5.7zm-.787-.806 5.681-5.681A.233.233 0 0 0 14.925 9a.233.233 0 0 0-.075-.169L9.169 3.15a.233.233 0 0 0-.17-.075.233.233 0 0 0-.168.075L3.15 8.831A.233.233 0 0 0 3.075 9c0 .063.025.119.075.169L8.83 14.85c.05.05.106.075.169.075a.233.233 0 0 0 .169-.075zm-.17-5.044a.547.547 0 0 0 .563-.562V6.169a.548.548 0 0 0-.159-.404A.548.548 0 0 0 9 5.606a.546.546 0 0 0-.563.563v3.075A.544.544 0 0 0 9 9.806zm0 1.969a.591.591 0 0 0 .6-.6.617.617 0 0 0-.168-.441.569.569 0 0 0-.431-.178.569.569 0 0 0-.431.178.617.617 0 0 0-.17.441c.001.162.057.303.17.421a.567.567 0 0 0 .43.179z" fill="#FF5757"/>
    </g>
</svg>
