<svg width="24" height="24" viewBox="0 0 24 24" fill="none" xmlns="http://www.w3.org/2000/svg">
    <mask id="k10sbxq6la" style="mask-type:alpha" maskUnits="userSpaceOnUse" x="0" y="0" width="24" height="24">
        <path fill="#D9D9D9" d="M0 0h24v24H0z"/>
    </mask>
    <g mask="url(#k10sbxq6la)">
        <path d="M13.5 21.5h-3.025a.834.834 0 0 1-.575-.225.924.924 0 0 1-.3-.575l-.3-2.25a3.694 3.694 0 0 1-.812-.375 7.633 7.633 0 0 1-.763-.525l-2.075.9a.934.934 0 0 1-1.15-.375L3 15.45a.856.856 0 0 1-.1-.638.92.92 0 0 1 .325-.537L5.05 12.9c-.033-.15-.054-.3-.062-.45a7.806 7.806 0 0 1 0-.875c.008-.15.029-.308.062-.475L3.225 9.725a.92.92 0 0 1-.325-.537.856.856 0 0 1 .1-.638l1.5-2.6a.852.852 0 0 1 .5-.4.894.894 0 0 1 .625.025l2.1.875a6.34 6.34 0 0 1 1.575-.9l.3-2.25a.924.924 0 0 1 .3-.575.834.834 0 0 1 .575-.225H13.5c.233 0 .433.075.6.225.167.15.267.342.3.575l.3 2.25c.3.117.57.246.812.387.242.142.488.313.738.513l2.125-.875a.863.863 0 0 1 .613-.025.96.96 0 0 1 .512.4l1.5 2.6c.117.2.15.413.1.638a.92.92 0 0 1-.325.537l-1.85 1.4c.033.167.05.317.05.45V12c0 .133-.004.27-.013.412a4.04 4.04 0 0 1-.062.488l1.825 1.375c.183.133.3.312.35.537a.797.797 0 0 1-.125.638l-1.5 2.6a.852.852 0 0 1-.5.4.969.969 0 0 1-.65-.025l-2.05-.875c-.25.2-.504.375-.762.525-.259.15-.521.275-.788.375l-.3 2.25a.923.923 0 0 1-.3.575.866.866 0 0 1-.6.225zM12 15c.833 0 1.542-.292 2.125-.875A2.893 2.893 0 0 0 15 12c0-.833-.292-1.542-.875-2.125A2.893 2.893 0 0 0 12 9c-.833 0-1.542.292-2.125.875A2.893 2.893 0 0 0 9 12c0 .833.292 1.542.875 2.125A2.893 2.893 0 0 0 12 15z" fill="#fff"/>
    </g>
</svg>
