<svg width="44" height="44" viewBox="0 0 44 44" fill="none" xmlns="http://www.w3.org/2000/svg">
    <mask id="4etzpy26xa" style="mask-type:alpha" maskUnits="userSpaceOnUse" x="8" y="8" width="28" height="28">
        <path fill="#D9D9D9" d="M8 8h28v28H8z"/>
    </mask>
    <g mask="url(#4etzpy26xa)">
        <path d="M15 31.042c-.564 0-1.045-.2-1.443-.598A1.968 1.968 0 0 1 12.958 29v-4.666c0-.564.2-1.046.599-1.445.398-.398.879-.597 1.443-.597.564 0 1.045.199 1.444.597.399.4.598.88.598 1.445V29c0 .564-.2 1.046-.598 1.445a1.97 1.97 0 0 1-1.444.597zm7 0a1.97 1.97 0 0 1-1.444-.598A1.97 1.97 0 0 1 19.958 29V15c0-.564.2-1.045.598-1.444A1.97 1.97 0 0 1 22 12.959c.564 0 1.045.199 1.444.597.399.399.598.88.598 1.444v14c0 .564-.2 1.046-.598 1.445a1.97 1.97 0 0 1-1.444.597zm7 0c-.564 0-1.045-.2-1.443-.598A1.968 1.968 0 0 1 26.958 29v-8.166c0-.564.2-1.046.599-1.445.398-.398.879-.597 1.443-.597.564 0 1.045.199 1.444.597.399.4.598.88.598 1.445V29c0 .564-.2 1.046-.598 1.445a1.97 1.97 0 0 1-1.444.597z" fill="#fff" fill-opacity="current"/>
    </g>
</svg>
