<svg width="105" height="65" viewBox="0 0 105 65" fill="none" xmlns="http://www.w3.org/2000/svg">
<rect width="60.372" height="64.8999" rx="4.5279" fill="#3B3B44"/>
<mask id="mask0_1357_10758" style="mask-type:alpha" maskUnits="userSpaceOnUse" x="6" y="6" width="10" height="10">
<rect x="6.03711" y="6.03711" width="9.0558" height="9.0558" fill="#D9D9D9"/>
</mask>
<g mask="url(#mask0_1357_10758)">
<path d="M11.1219 12.4989L9.42392 10.8009C9.39248 10.7695 9.36883 10.7332 9.35298 10.6922C9.33739 10.6515 9.32959 10.6091 9.32959 10.5651C9.32959 10.5211 9.33739 10.4785 9.35298 10.4375C9.36883 10.3968 9.39248 10.3607 9.42392 10.3292L11.1219 8.63128C11.1785 8.57469 11.2445 8.54639 11.32 8.54639C11.3954 8.54639 11.4615 8.57469 11.5181 8.63128C11.5747 8.68788 11.603 8.75392 11.603 8.82938C11.603 8.90485 11.5747 8.97088 11.5181 9.02748L9.98048 10.5651L11.5181 12.1027C11.5747 12.1593 11.603 12.2253 11.603 12.3008C11.603 12.3762 11.5747 12.4423 11.5181 12.4989C11.4615 12.5555 11.3954 12.5838 11.32 12.5838C11.2445 12.5838 11.1785 12.5555 11.1219 12.4989Z" fill="white"/>
</g>
<path d="M26.3117 8.81936C25.602 8.81494 25.1311 9.29028 25.1311 9.91596C25.1333 10.5217 25.5755 10.9573 26.1481 10.9551C26.4997 10.9573 26.8092 10.7915 26.9706 10.5129H27.0059C27.0015 11.2005 26.7406 11.6095 26.2764 11.6095C25.9867 11.6095 25.79 11.4481 25.7325 11.1939H25.1621C25.2328 11.7245 25.6595 12.1092 26.2764 12.1092C27.0634 12.1092 27.5631 11.4702 27.5631 10.367C27.5609 9.19742 26.9374 8.82378 26.3117 8.81936ZM25.6927 9.90269C25.6883 9.56 25.9558 9.28585 26.3161 9.28364C26.6743 9.28585 26.9352 9.57327 26.9352 9.89827C26.9374 10.2299 26.6633 10.5173 26.3073 10.5173C25.9491 10.5173 25.6927 10.2476 25.6927 9.90269ZM31.2597 8.46561H30.7645V10.3316H30.0172V10.6323H30.7645V10.7959H31.2597V8.46561ZM27.9036 9.90711L27.9566 10.252C28.2573 10.2542 28.5867 10.252 28.9294 10.2432V10.8003H29.4158V10.2233C29.785 10.2056 30.1609 10.1724 30.5257 10.1238L30.4992 9.81426C29.6413 9.90048 28.6752 9.90711 27.9036 9.90711ZM28.1866 9.12888C28.1866 9.50031 28.5867 9.72582 29.1947 9.72582C29.7895 9.72582 30.1918 9.50031 30.194 9.12888C30.1918 8.7663 29.7895 8.52973 29.1947 8.52752C28.5867 8.52973 28.1866 8.7663 28.1866 9.12888ZM28.4872 11.2558H30.7733V11.4945H28.5049V12.4231H31.3658V12.0738H28.9869V11.8173H31.2597V10.9197H28.4872V11.2558ZM28.6553 9.12888C28.6508 8.96085 28.8587 8.85252 29.1947 8.85473C29.5241 8.85252 29.7342 8.96085 29.7342 9.12888C29.7342 9.29691 29.5241 9.40082 29.1947 9.39861C28.8587 9.40082 28.6508 9.29691 28.6553 9.12888Z" fill="white"/>
<mask id="mask1_1357_10758" style="mask-type:alpha" maskUnits="userSpaceOnUse" x="31" y="7" width="8" height="7">
<rect x="31.7993" y="7.16895" width="6.79185" height="6.79185" fill="#D9D9D9"/>
</mask>
<g mask="url(#mask1_1357_10758)">
<path d="M35.1953 11.9091C35.2566 11.9091 35.3073 11.8891 35.3475 11.8491C35.3875 11.8089 35.4075 11.7582 35.4075 11.6969V10.4871C35.4075 10.4305 35.3875 10.3821 35.3475 10.3419C35.3073 10.3019 35.2566 10.2819 35.1953 10.2819C35.134 10.2819 35.0833 10.3019 35.0433 10.3419C35.0031 10.3821 34.983 10.4328 34.983 10.4942V11.704C34.983 11.7606 35.0031 11.8089 35.0433 11.8491C35.0833 11.8891 35.134 11.9091 35.1953 11.9091ZM35.1953 9.80082C35.2613 9.80082 35.3155 9.77837 35.358 9.73347C35.4004 9.68876 35.4217 9.63338 35.4217 9.56735C35.4217 9.50604 35.4004 9.45293 35.358 9.40803C35.3155 9.36331 35.2613 9.34096 35.1953 9.34096C35.1292 9.34096 35.075 9.36331 35.0326 9.40803C34.9901 9.45293 34.9689 9.50604 34.9689 9.56735C34.9689 9.63338 34.9901 9.68876 35.0326 9.73347C35.075 9.77837 35.1292 9.80082 35.1953 9.80082ZM35.1953 13.2533C34.8227 13.2533 34.4725 13.1826 34.1448 13.0411C33.8169 12.8996 33.5327 12.7086 33.2921 12.468C33.0516 12.2275 32.8606 11.9433 32.7191 11.6154C32.5776 11.2877 32.5068 10.9375 32.5068 10.5649C32.5068 10.1923 32.5776 9.84204 32.7191 9.51415C32.8606 9.18644 33.0516 8.90232 33.2921 8.66177C33.5327 8.42123 33.8169 8.23021 34.1448 8.08871C34.4725 7.94721 34.8227 7.87646 35.1953 7.87646C35.5679 7.87646 35.9181 7.94721 36.246 8.08871C36.5737 8.23021 36.8579 8.42123 37.0984 8.66177C37.339 8.90232 37.53 9.18644 37.6715 9.51415C37.813 9.84204 37.8837 10.1923 37.8837 10.5649C37.8837 10.9375 37.813 11.2877 37.6715 11.6154C37.53 11.9433 37.339 12.2275 37.0984 12.468C36.8579 12.7086 36.5737 12.8996 36.246 13.0411C35.9181 13.1826 35.5679 13.2533 35.1953 13.2533ZM35.1953 12.8289C35.8226 12.8289 36.3568 12.6084 36.7979 12.1675C37.2388 11.7264 37.4592 11.1922 37.4592 10.5649C37.4592 9.9376 37.2388 9.4034 36.7979 8.96231C36.3568 8.52141 35.8226 8.30096 35.1953 8.30096C34.568 8.30096 34.0339 8.52141 33.593 8.96231C33.1519 9.4034 32.9313 9.9376 32.9313 10.5649C32.9313 11.1922 33.1519 11.7264 33.593 12.1675C34.0339 12.6084 34.568 12.8289 35.1953 12.8289Z" fill="#7E7C8C"/>
</g>
<mask id="mask2_1357_10758" style="mask-type:alpha" maskUnits="userSpaceOnUse" x="45" y="6" width="10" height="10">
<rect x="45.2788" y="6.03711" width="9.0558" height="9.0558" fill="#D9D9D9"/>
</mask>
<g mask="url(#mask2_1357_10758)">
<path d="M48.6279 12.4989C48.5713 12.4423 48.543 12.3762 48.543 12.3008C48.543 12.2253 48.5713 12.1593 48.6279 12.1027L50.1655 10.5651L48.6279 9.02748C48.5713 8.97088 48.543 8.90485 48.543 8.82938C48.543 8.75392 48.5713 8.68788 48.6279 8.63128C48.6845 8.57469 48.7505 8.54639 48.826 8.54639C48.9014 8.54639 48.9675 8.57469 49.0241 8.63128L50.722 10.3292C50.7535 10.3607 50.7771 10.3968 50.793 10.4375C50.8086 10.4785 50.8164 10.5211 50.8164 10.5651C50.8164 10.6091 50.8086 10.6515 50.793 10.6922C50.7771 10.7332 50.7535 10.7695 50.722 10.8009L49.0241 12.4989C48.9675 12.5555 48.9014 12.5838 48.826 12.5838C48.7505 12.5838 48.6845 12.5555 48.6279 12.4989Z" fill="white"/>
</g>
<path d="M7.14071 18.7946C6.73391 18.796 6.43323 19.0451 6.43323 19.3959C6.43323 19.7482 6.73391 19.9958 7.14071 19.9973C7.54457 19.9958 7.84525 19.7482 7.8482 19.3959C7.84525 19.0451 7.54457 18.796 7.14071 18.7946ZM6.7516 19.3959C6.7516 19.194 6.91668 19.0643 7.14071 19.0658C7.36475 19.0643 7.52835 19.194 7.52983 19.3959C7.52835 19.6023 7.36475 19.732 7.14071 19.732C6.91668 19.732 6.7516 19.6023 6.7516 19.3959ZM6.83708 20.4277H8.27858V20.6252H6.84298V21.3415H8.68539V21.0821H7.16429V20.8669H8.60579V20.1712H6.83708V20.4277ZM8.27563 20.0562H8.60579V18.7091H8.27563V20.0562Z" fill="white"/>
<path d="M16.1484 18.712H15.8182V19.956H15.32V20.1565H15.8182V20.2655H16.1484V18.712ZM13.9109 19.673L13.9463 19.903C14.1468 19.9044 14.3664 19.903 14.5948 19.8971V20.2685H14.9191V19.8838C15.1653 19.872 15.4158 19.8499 15.659 19.8175L15.6413 19.6111C15.0695 19.6686 14.4253 19.673 13.9109 19.673ZM14.0996 19.1542C14.0996 19.4018 14.3664 19.5522 14.7717 19.5522C15.1682 19.5522 15.4365 19.4018 15.4379 19.1542C15.4365 18.9125 15.1682 18.7548 14.7717 18.7533C14.3664 18.7548 14.0996 18.9125 14.0996 19.1542ZM14.3001 20.5721H15.8241V20.7313H14.3119V21.3503H16.2191V21.1175H14.6332V20.9465H16.1484V20.3481H14.3001V20.5721ZM14.4121 19.1542C14.4091 19.0422 14.5477 18.97 14.7717 18.9714C14.9913 18.97 15.1314 19.0422 15.1314 19.1542C15.1314 19.2662 14.9913 19.3355 14.7717 19.334C14.5477 19.3355 14.4091 19.2662 14.4121 19.1542Z" fill="white"/>
<path d="M23.5494 18.7091H23.2193V21.3739H23.5494V20.0828H23.9238V19.8086H23.5494V18.7091ZM21.4093 20.634L21.4565 20.9052C21.9104 20.9052 22.5265 20.9008 23.0984 20.7962L23.0778 20.5574C22.8685 20.5869 22.6444 20.6045 22.4204 20.6163V20.379C22.7108 20.3304 22.9039 20.1491 22.9068 19.8971C22.9039 19.5964 22.6371 19.3974 22.2583 19.3959C21.8751 19.3974 21.6112 19.5964 21.6127 19.8971C21.6112 20.1476 21.7999 20.3289 22.0903 20.379V20.6281C21.8456 20.634 21.6112 20.634 21.4093 20.634ZM21.4594 19.2751H23.0483V19.0156H22.4204V18.7209H22.0903V19.0156H21.4594V19.2751ZM21.9222 19.8971C21.9208 19.7423 22.0564 19.648 22.2583 19.6465C22.4573 19.648 22.5914 19.7423 22.5914 19.8971C22.5914 20.0503 22.4573 20.1403 22.2583 20.1388C22.0564 20.1403 21.9208 20.0503 21.9222 19.8971Z" fill="white"/>
<path d="M30.358 18.9302V18.7946H30.0131V18.9302C30.0131 19.2677 29.6387 19.6052 29.0757 19.6789L29.2054 19.9442C29.6535 19.8764 30.0116 19.6539 30.1855 19.3532C30.3595 19.6539 30.7191 19.8764 31.1716 19.9442L31.3013 19.6789C30.7324 19.6052 30.3565 19.2647 30.358 18.9302ZM28.9696 20.4454H30.016V21.3739H30.3403V20.4454H31.3986V20.1742H28.9696V20.4454Z" fill="white"/>
<path d="M38.6174 18.8181H36.8045V19.7438H37.5444V20.0238H36.4979V20.2891H38.9269V20.0238H37.8745V19.7438H38.6174V18.8181ZM36.7661 20.7726H38.302V21.3739H38.6292V20.5132H36.7661V20.7726ZM37.1228 19.4844V19.0746H38.2931V19.4844H37.1228Z" fill="white"/>
<path d="M46.1629 18.8388H44.3264V19.1011H45.8357C45.8357 19.2957 45.8298 19.5138 45.7664 19.8027H44.0257V20.068H46.4606V19.8027H46.0981C46.1644 19.4888 46.1644 19.253 46.1629 19.0451V18.8388ZM44.3175 21.3415H46.16V20.3776H44.3175V21.3415ZM44.6389 21.0762V20.634H45.8357V21.0762H44.6389Z" fill="white"/>
<path d="M53.7202 20.0503H52.1844V19.732H53.6347V19.4726H52.1844V19.1719H53.6966V18.9066H51.8513V20.3127H52.603V20.7991H51.5535V21.0615H53.9885V20.7991H52.9331V20.3127H53.7202V20.0503Z" fill="white"/>
<rect x="39.6191" y="23.6208" width="5.28255" height="5.28255" rx="0.75465" transform="rotate(90 39.6191 23.6208)" fill="#66FFA6"/>
<rect x="46.4111" y="23.6208" width="5.28255" height="5.28255" rx="0.75465" transform="rotate(90 46.4111 23.6208)" fill="#447157"/>
<rect x="53.2026" y="23.6208" width="5.28255" height="5.28255" rx="0.75465" transform="rotate(90 53.2026 23.6208)" fill="#FF8058"/>
<rect x="12.4517" y="31.1675" width="5.28255" height="5.28255" rx="0.75465" transform="rotate(90 12.4517 31.1675)" fill="#66FFA6"/>
<rect x="19.2437" y="31.1675" width="5.28255" height="5.28255" rx="0.75465" transform="rotate(90 19.2437 31.1675)" fill="#66FFA6"/>
<rect x="26.0356" y="31.1675" width="5.28255" height="5.28255" rx="0.75465" transform="rotate(90 26.0356 31.1675)" fill="#447157"/>
<rect x="32.8271" y="31.1675" width="5.28255" height="5.28255" rx="0.75465" transform="rotate(90 32.8271 31.1675)" fill="#FF8058"/>
<rect x="39.6191" y="31.1675" width="5.28255" height="5.28255" rx="0.75465" transform="rotate(90 39.6191 31.1675)" fill="#447157"/>
<rect x="46.4111" y="31.1675" width="5.28255" height="5.28255" rx="0.75465" transform="rotate(90 46.4111 31.1675)" fill="#FF8058"/>
<rect x="53.2026" y="31.1675" width="5.28255" height="5.28255" rx="0.75465" transform="rotate(90 53.2026 31.1675)" fill="#66FFA6"/>
<rect x="12.4517" y="38.7139" width="5.28255" height="5.28255" rx="0.75465" transform="rotate(90 12.4517 38.7139)" fill="#FF8058"/>
<rect x="19.2437" y="38.7139" width="5.28255" height="5.28255" rx="0.75465" transform="rotate(90 19.2437 38.7139)" fill="#3A4941"/>
<rect x="26.0356" y="38.7139" width="5.28255" height="5.28255" rx="0.75465" transform="rotate(90 26.0356 38.7139)" fill="#3A4941"/>
<rect x="32.8271" y="38.7139" width="5.28255" height="5.28255" rx="0.75465" transform="rotate(90 32.8271 38.7139)" fill="#66FFA6"/>
<rect x="39.6191" y="38.7139" width="5.28255" height="5.28255" rx="0.75465" transform="rotate(90 39.6191 38.7139)" fill="#3A4941"/>
<rect x="46.4111" y="38.7139" width="5.28255" height="5.28255" rx="0.75465" transform="rotate(90 46.4111 38.7139)" fill="#66FFA6"/>
<rect x="53.2026" y="38.7139" width="5.28255" height="5.28255" rx="0.75465" transform="rotate(90 53.2026 38.7139)" fill="#66FFA6"/>
<rect x="12.4517" y="46.2605" width="5.28255" height="5.28255" rx="0.75465" transform="rotate(90 12.4517 46.2605)" fill="#447157"/>
<rect x="19.2437" y="46.2605" width="5.28255" height="5.28255" rx="0.75465" transform="rotate(90 19.2437 46.2605)" fill="#66FFA6"/>
<rect x="26.0356" y="46.2605" width="5.28255" height="5.28255" rx="0.75465" transform="rotate(90 26.0356 46.2605)" fill="#66FFA6"/>
<rect x="32.8271" y="46.2605" width="5.28255" height="5.28255" rx="0.75465" transform="rotate(90 32.8271 46.2605)" fill="#3A4941"/>
<rect x="39.4305" y="46.4492" width="4.90522" height="4.90522" rx="0.565987" transform="rotate(90 39.4305 46.4492)" fill="#FF8058" stroke="white" stroke-width="0.377325"/>
<rect x="46.4111" y="46.2605" width="5.28255" height="5.28255" rx="0.75465" transform="rotate(90 46.4111 46.2605)" fill="#4B4A56"/>
<rect x="53.2026" y="46.2605" width="5.28255" height="5.28255" rx="0.75465" transform="rotate(90 53.2026 46.2605)" fill="#4B4A56"/>
<rect x="12.4517" y="53.8069" width="5.28255" height="5.28255" rx="0.75465" transform="rotate(90 12.4517 53.8069)" fill="#4B4A56"/>
<rect x="19.2437" y="53.8069" width="5.28255" height="5.28255" rx="0.75465" transform="rotate(90 19.2437 53.8069)" fill="#4B4A56"/>
<rect x="26.0356" y="53.8069" width="5.28255" height="5.28255" rx="0.75465" transform="rotate(90 26.0356 53.8069)" fill="#4B4A56"/>
<rect x="32.8271" y="53.8069" width="5.28255" height="5.28255" rx="0.75465" transform="rotate(90 32.8271 53.8069)" fill="#4B4A56"/>
<rect x="39.6191" y="53.8069" width="5.28255" height="5.28255" rx="0.75465" transform="rotate(90 39.6191 53.8069)" fill="#4B4A56"/>
<rect x="46.4111" y="53.8069" width="5.28255" height="5.28255" rx="0.75465" transform="rotate(90 46.4111 53.8069)" fill="#4B4A56"/>
<rect x="53.2026" y="53.8069" width="5.28255" height="5.28255" rx="0.75465" transform="rotate(90 53.2026 53.8069)" fill="#4B4A56"/>
<path d="M79.4282 11.0442C80.1202 11.0442 80.6265 10.6529 80.6221 10.1112C80.6265 9.70884 80.3701 9.41921 79.9191 9.35952V9.33299C80.2684 9.26003 80.5071 9.00136 80.5027 8.64319C80.5071 8.15238 80.0871 7.75442 79.4371 7.75442C78.8114 7.75442 78.3228 8.12363 78.3095 8.66088H78.8622C78.8733 8.39115 79.132 8.22312 79.4327 8.22312C79.7444 8.22312 79.9478 8.40442 79.9456 8.67415C79.9478 8.95272 79.7112 9.14285 79.3708 9.14285H79.0833V9.58503H79.3708C79.7864 9.58724 80.034 9.79285 80.034 10.0803C80.034 10.3655 79.7798 10.56 79.4282 10.5578C79.0944 10.56 78.8379 10.3898 78.8225 10.1333H78.2432C78.2565 10.6728 78.7451 11.0442 79.4282 11.0442ZM82.5058 8.35578V7.71904H82.0061V8.35578C82.0039 9.12738 81.6148 9.89013 80.9493 10.1775L81.25 10.5888C81.7342 10.3611 82.0791 9.90119 82.2626 9.33962C82.4483 9.86139 82.7844 10.2837 83.2442 10.4959L83.5361 10.1024C82.8883 9.82381 82.5014 9.08979 82.5058 8.35578ZM83.8235 11.398H84.3187V7.39625H83.8235V11.398ZM88.0595 7.39625H87.5599V10.2793H88.0595V8.95714H88.6167V8.54591H88.0595V7.39625ZM84.8936 9.47449L85.097 9.8636C86.2798 9.52092 86.974 8.76258 86.9718 7.70135H85.0616V8.10374H86.4345C86.3505 8.71173 85.8089 9.20918 84.8936 9.47449ZM85.4905 11.3139H88.2099V10.916H85.9902V9.98299H85.4905V11.3139ZM92.0082 7.7721H90.1068V10.4207H92.0082V7.7721ZM90.5932 10.0272V8.1568H91.5306V10.0272H90.5932ZM92.7245 11.398H93.2198V7.39625H92.7245V11.398ZM95.8374 7.74115H93.9449V9.62925H95.8374V7.74115ZM94.4004 11.3139H97.1198V10.916H94.8912V10.0316H94.4004V11.3139ZM94.4269 9.24013V8.13469H95.3555V9.24013H94.4269ZM96.4698 10.3146H96.9606V8.97925H97.5177V8.56802H96.9606V7.39625H96.4698V10.3146Z" fill="#7E7C8C"/>
<path d="M79.4282 23.0442C80.1202 23.0442 80.6265 22.6529 80.6221 22.1112C80.6265 21.7088 80.3701 21.4192 79.9191 21.3595V21.333C80.2684 21.26 80.5071 21.0014 80.5027 20.6432C80.5071 20.1524 80.0871 19.7544 79.4371 19.7544C78.8114 19.7544 78.3228 20.1236 78.3095 20.6609H78.8622C78.8733 20.3912 79.132 20.2231 79.4327 20.2231C79.7444 20.2231 79.9478 20.4044 79.9456 20.6741C79.9478 20.9527 79.7112 21.1429 79.3708 21.1429H79.0833V21.585H79.3708C79.7864 21.5872 80.034 21.7929 80.034 22.0803C80.034 22.3655 79.7798 22.56 79.4282 22.5578C79.0944 22.56 78.8379 22.3898 78.8225 22.1333H78.2432C78.2565 22.6728 78.7451 23.0442 79.4282 23.0442ZM82.5854 21.4347H81.1439V21.899H82.5854V21.4347ZM84.332 23.0442C85.0395 23.0486 85.5148 22.5755 85.5126 21.9388C85.5148 21.333 85.0704 20.8974 84.4956 20.8997C84.1441 20.8974 83.8367 21.0611 83.6731 21.3374H83.6422C83.6444 20.6631 83.9031 20.2519 84.3674 20.2541C84.6592 20.2519 84.8538 20.4155 84.9112 20.6609H85.4816C85.4087 20.1413 84.9842 19.7544 84.3674 19.7544C83.5825 19.7544 83.085 20.3934 83.085 21.4878C83.0828 22.6684 83.7063 23.0398 84.332 23.0442ZM83.7041 21.9565C83.7085 21.6226 83.9805 21.3374 84.3408 21.3374C84.6968 21.3374 84.9532 21.6116 84.9555 21.952C84.9532 22.3036 84.6879 22.5777 84.332 22.5799C83.9694 22.5777 83.7085 22.2903 83.7041 21.9565ZM87.3786 20.3558V19.719H86.8789V20.3558C86.8767 21.1274 86.4876 21.8901 85.8221 22.1775L86.1228 22.5888C86.607 22.3611 86.9519 21.9012 87.1354 21.3396C87.3211 21.8614 87.6572 22.2837 88.117 22.4959L88.4089 22.1024C87.7611 21.8238 87.3742 21.0898 87.3786 20.3558ZM88.6963 23.398H89.1915V19.3963H88.6963V23.398ZM92.9323 19.3963H92.4327V22.2793H92.9323V20.9571H93.4895V20.5459H92.9323V19.3963ZM89.7663 21.4745L89.9698 21.8636C91.1526 21.5209 91.8468 20.7626 91.8446 19.7014H89.9344V20.1037H91.3073C91.2233 20.7117 90.6817 21.2092 89.7663 21.4745ZM90.3633 23.3139H93.0827V22.916H90.8629V21.983H90.3633V23.3139ZM96.881 19.7721H94.9796V22.4207H96.881V19.7721ZM95.466 22.0272V20.1568H96.4034V22.0272H95.466ZM97.5973 23.398H98.0926V19.3963H97.5973V23.398ZM100.71 19.7412H98.8177V21.6292H100.71V19.7412ZM99.2732 23.3139H101.993V22.916H99.764V22.0316H99.2732V23.3139ZM99.2997 21.2401V20.1347H100.228V21.2401H99.2997ZM101.343 22.3146H101.833V20.9792H102.391V20.568H101.833V19.3963H101.343V22.3146Z" fill="#7E7C8C"/>
<path d="M79.4636 35.0442C80.1711 35.0486 80.6464 34.5755 80.6442 33.9388C80.6464 33.333 80.202 32.8974 79.6272 32.8997C79.2757 32.8974 78.9684 33.0611 78.8048 33.3374H78.7738C78.776 32.6631 79.0347 32.2519 79.499 32.2541C79.7908 32.2519 79.9854 32.4155 80.0429 32.6609H80.6133C80.5403 32.1413 80.1158 31.7544 79.499 31.7544C78.7141 31.7544 78.2167 32.3934 78.2167 33.4878C78.2145 34.6684 78.8379 35.0398 79.4636 35.0442ZM78.8357 33.9565C78.8401 33.6226 79.1121 33.3374 79.4725 33.3374C79.8284 33.3374 80.0849 33.6116 80.0871 33.952C80.0849 34.3036 79.8196 34.5777 79.4636 34.5799C79.101 34.5777 78.8401 34.2903 78.8357 33.9565ZM82.5898 33.4347H81.1483V33.899H82.5898V33.4347ZM84.2745 31.7544C83.5648 31.75 83.0939 32.2253 83.0939 32.851C83.0961 33.4568 83.5383 33.8923 84.1109 33.8901C84.4624 33.8923 84.772 33.7265 84.9333 33.448H84.9687C84.9643 34.1355 84.7034 34.5446 84.2391 34.5446C83.9495 34.5446 83.7527 34.3832 83.6952 34.1289H83.1248C83.1956 34.6595 83.6223 35.0442 84.2391 35.0442C85.0262 35.0442 85.5259 34.4053 85.5259 33.302C85.5237 32.1325 84.9002 31.7588 84.2745 31.7544ZM83.6555 32.8378C83.651 32.4951 83.9185 32.2209 84.2789 32.2187C84.6371 32.2209 84.898 32.5083 84.898 32.8333C84.9002 33.165 84.626 33.4524 84.2701 33.4524C83.9119 33.4524 83.6555 33.1826 83.6555 32.8378ZM87.383 32.3558V31.719H86.8834V32.3558C86.8811 33.1274 86.492 33.8901 85.8265 34.1775L86.1272 34.5888C86.6114 34.3611 86.9563 33.9012 87.1398 33.3396C87.3255 33.8614 87.6616 34.2837 88.1214 34.4959L88.4133 34.1024C87.7655 33.8238 87.3786 33.0898 87.383 32.3558ZM88.7007 35.398H89.1959V31.3963H88.7007V35.398ZM92.9368 31.3963H92.4371V34.2793H92.9368V32.9571H93.4939V32.5459H92.9368V31.3963ZM89.7708 33.4745L89.9742 33.8636C91.157 33.5209 91.8512 32.7626 91.849 31.7014H89.9388V32.1037H91.3118C91.2277 32.7117 90.6861 33.2092 89.7708 33.4745ZM90.3677 35.3139H93.0871V34.916H90.8674V33.983H90.3677V35.3139ZM96.8854 31.7721H94.984V34.4207H96.8854V31.7721ZM95.4704 34.0272V32.1568H96.4079V34.0272H95.4704ZM97.6017 35.398H98.097V31.3963H97.6017V35.398ZM100.715 31.7412H98.8221V33.6292H100.715V31.7412ZM99.2776 35.3139H101.997V34.916H99.7684V34.0316H99.2776V35.3139ZM99.3041 33.2401V32.1347H100.233V33.2401H99.3041ZM101.347 34.3146H101.838V32.9792H102.395V32.568H101.838V31.3963H101.347V34.3146Z" fill="#7E7C8C"/>
<path d="M79.4017 42.7544C78.692 42.75 78.2211 43.2253 78.2211 43.851C78.2233 44.4568 78.6655 44.8923 79.2381 44.8901C79.5896 44.8923 79.8992 44.7265 80.0605 44.448H80.0959C80.0915 45.1355 79.8306 45.5446 79.3663 45.5446C79.0767 45.5446 78.8799 45.3832 78.8225 45.1289H78.252C78.3228 45.6595 78.7495 46.0442 79.3663 46.0442C80.1534 46.0442 80.6531 45.4053 80.6531 44.302C80.6509 43.1325 80.0274 42.7588 79.4017 42.7544ZM78.7827 43.8378C78.7782 43.4951 79.0458 43.2209 79.4061 43.2187C79.7643 43.2209 80.0252 43.5083 80.0252 43.8333C80.0274 44.165 79.7532 44.4524 79.3973 44.4524C79.0391 44.4524 78.7827 44.1826 78.7827 43.8378ZM82.5898 44.4347H81.1483V44.899H82.5898V44.4347ZM84.4381 42.7986H83.8854L83.0939 43.3116V43.8378L83.8412 43.3602H83.8589V46H84.4381V42.7986ZM85.2163 46H87.4405V45.518H86.0167V45.4959L86.5871 44.9299C87.2172 44.3352 87.3896 44.0434 87.3919 43.683C87.3896 43.1457 86.9497 42.7544 86.2953 42.7544C85.6563 42.7544 85.2009 43.148 85.2031 43.7537H85.7514C85.7492 43.4287 85.9614 43.2231 86.2908 43.2231C86.6026 43.2231 86.8391 43.411 86.8391 43.7095C86.8391 43.9792 86.6711 44.1694 86.3483 44.4922L85.2163 45.5844V46ZM89.3242 43.3558V42.719H88.8245V43.3558C88.8223 44.1274 88.4332 44.8901 87.7677 45.1775L88.0684 45.5888C88.5526 45.3611 88.8975 44.9012 89.081 44.3396C89.2667 44.8614 89.6027 45.2837 90.0626 45.4959L90.3544 45.1024C89.7067 44.8238 89.3197 44.0898 89.3242 43.3558ZM90.6419 46.398H91.1371V42.3963H90.6419V46.398ZM94.8779 42.3963H94.3783V45.2793H94.8779V43.9571H95.4351V43.5459H94.8779V42.3963ZM91.7119 44.4745L91.9153 44.8636C93.0982 44.5209 93.7924 43.7626 93.7902 42.7014H91.88V43.1037H93.2529C93.1689 43.7117 92.6272 44.2092 91.7119 44.4745ZM92.3089 46.3139H95.0283V45.916H92.8085V44.983H92.3089V46.3139ZM98.8266 42.7721H96.9252V45.4207H98.8266V42.7721ZM97.4116 45.0272V43.1568H98.349V45.0272H97.4116ZM99.5429 46.398H100.038V42.3963H99.5429V46.398ZM102.656 42.7412H100.763V44.6292H102.656V42.7412ZM101.219 46.3139H103.938V45.916H101.71V45.0316H101.219V46.3139ZM101.245 44.2401V43.1347H102.174V44.2401H101.245ZM103.288 45.3146H103.779V43.9792H104.336V43.568H103.779V42.3963H103.288V45.3146Z" fill="#7E7C8C"/>
<path d="M79.5653 54.7986H79.0126L78.2211 55.3116V55.8378L78.9684 55.3602H78.9861V58H79.5653V54.7986ZM80.3435 58H82.5677V57.518H81.1439V57.4959L81.7143 56.9299C82.3444 56.3352 82.5168 56.0434 82.5191 55.683C82.5168 55.1457 82.0769 54.7544 81.4225 54.7544C80.7835 54.7544 80.3281 55.148 80.3303 55.7537H80.8786C80.8764 55.4287 81.0886 55.2231 81.418 55.2231C81.7298 55.2231 81.9663 55.411 81.9663 55.7095C81.9663 55.9792 81.7983 56.1694 81.4755 56.4922L80.3435 57.5844V58ZM84.4514 55.3558V54.719H83.9517V55.3558C83.9495 56.1274 83.5604 56.8901 82.8949 57.1775L83.1956 57.5888C83.6798 57.3611 84.0247 56.9012 84.2082 56.3396C84.3939 56.8614 84.7299 57.2837 85.1898 57.4959L85.4816 57.1024C84.8339 56.8238 84.447 56.0898 84.4514 55.3558ZM85.7691 58.398H86.2643V54.3963H85.7691V58.398ZM90.0051 54.3963H89.5055V57.2793H90.0051V55.9571H90.5623V55.5459H90.0051V54.3963ZM86.8391 56.4745L87.0425 56.8636C88.2254 56.5209 88.9196 55.7626 88.9174 54.7014H87.0072V55.1037H88.3801C88.2961 55.7117 87.7544 56.2092 86.8391 56.4745ZM87.4361 58.3139H90.1555V57.916H87.9357V56.983H87.4361V58.3139ZM95.1653 54.3963H94.6701V58.398H95.1653V54.3963ZM91.9684 56.0986C91.9662 56.9675 92.4061 57.5136 93.0119 57.5136C93.6111 57.5136 94.0533 56.9675 94.0555 56.0986C94.0533 55.2364 93.6111 54.6881 93.0119 54.6881C92.4061 54.6881 91.9662 55.2364 91.9684 56.0986ZM92.4415 56.0986C92.4415 55.4884 92.6737 55.1303 93.0119 55.1303C93.348 55.1303 93.5779 55.4884 93.5779 56.0986C93.5779 56.7133 93.348 57.0692 93.0119 57.0714C92.6737 57.0692 92.4415 56.7133 92.4415 56.0986ZM97.1684 55.033V54.6085H96.6776V54.9888C96.6754 55.5592 96.3526 56.092 95.7092 56.3153L95.9745 56.7C96.4344 56.5386 96.7572 56.2048 96.9296 55.7803C97.1043 56.1517 97.4138 56.4435 97.8449 56.5895L98.1102 56.2048C97.4934 56.0102 97.1684 55.5349 97.1684 55.033ZM96.2531 57.6286C96.2531 58.1128 96.7727 58.3891 97.6062 58.3891C98.433 58.3891 98.9437 58.1128 98.946 57.6286C98.9437 57.1554 98.433 56.8747 97.6062 56.8769C96.7727 56.8747 96.2531 57.1554 96.2531 57.6286ZM96.7439 57.6286C96.7439 57.3942 97.0579 57.2616 97.6062 57.2616C98.1522 57.2616 98.4596 57.3942 98.4596 57.6286C98.4596 57.8762 98.1522 58 97.6062 58C97.0579 58 96.7439 57.8762 96.7439 57.6286ZM98.4153 56.7884H98.9062V55.7758H99.4633V55.369H98.9062V54.3963H98.4153V56.7884Z" fill="#7E7C8C"/>
<rect x="75" y="5" width="9" height="9" rx="2" transform="rotate(90 75 5)" fill="#66FFA6" fill-opacity="0.1"/>
<rect x="75" y="17" width="9" height="9" rx="2" transform="rotate(90 75 17)" fill="#66FFA6" fill-opacity="0.3"/>
<rect x="75" y="29" width="9" height="9" rx="2" transform="rotate(90 75 29)" fill="#66FFA6" fill-opacity="0.5"/>
<rect x="75" y="40" width="9" height="9" rx="2" transform="rotate(90 75 40)" fill="#66FFA6"/>
<rect x="75" y="52" width="9" height="9" rx="2" transform="rotate(90 75 52)" fill="#FF8058"/>
</svg>
