<svg width="105" height="28" viewBox="0 0 105 28" fill="none" xmlns="http://www.w3.org/2000/svg">
<rect width="77" height="28" rx="14" fill="#3B3B44"/>
<path d="M16.1934 18.1172C18.2324 18.1172 19.4512 16.541 19.4512 13.7578C19.4512 10.9922 18.2266 9.39844 16.1934 9.39844C14.1602 9.39844 12.9297 10.9922 12.9355 13.7578C12.9297 16.5352 14.1484 18.1172 16.1934 18.1172ZM14.4707 13.7578C14.4766 11.7363 15.1328 10.6699 16.1934 10.6641C17.2539 10.6699 17.9102 11.7363 17.916 13.7578C17.916 15.7969 17.2539 16.834 16.1934 16.8398C15.127 16.834 14.4707 15.7969 14.4707 13.7578ZM23.8574 18.1172C25.8965 18.1172 27.1152 16.541 27.1152 13.7578C27.1152 10.9922 25.8906 9.39844 23.8574 9.39844C21.8242 9.39844 20.5938 10.9922 20.5996 13.7578C20.5938 16.5352 21.8125 18.1172 23.8574 18.1172ZM22.1348 13.7578C22.1406 11.7363 22.7969 10.6699 23.8574 10.6641C24.918 10.6699 25.5742 11.7363 25.5801 13.7578C25.5801 15.7969 24.918 16.834 23.8574 16.8398C22.791 16.834 22.1348 15.7969 22.1348 13.7578ZM29.3301 16.9805C29.8164 16.9805 30.2324 16.5703 30.2324 16.0664C30.2324 15.5742 29.8164 15.1699 29.3301 15.1641C28.8262 15.1699 28.4102 15.5742 28.416 16.0664C28.4102 16.5703 28.8262 16.9805 29.3301 16.9805ZM28.416 11.8594C28.4102 12.3633 28.8262 12.7734 29.3301 12.7734C29.8164 12.7734 30.2324 12.3633 30.2324 11.8594C30.2324 11.3672 29.8164 10.9629 29.3301 10.957C28.8262 10.9629 28.4102 11.3672 28.416 11.8594ZM34.791 18.1172C36.8301 18.1172 38.0488 16.541 38.0488 13.7578C38.0488 10.9922 36.8242 9.39844 34.791 9.39844C32.7578 9.39844 31.5273 10.9922 31.5332 13.7578C31.5273 16.5352 32.7461 18.1172 34.791 18.1172ZM33.0684 13.7578C33.0742 11.7363 33.7305 10.6699 34.791 10.6641C35.8516 10.6699 36.5078 11.7363 36.5137 13.7578C36.5137 15.7969 35.8516 16.834 34.791 16.8398C33.7246 16.834 33.0684 15.7969 33.0684 13.7578ZM39.1738 16.418H43.2871V18H44.7402V16.418H45.8535V15.1641H44.7402V9.51562H42.8418L39.1738 15.1992V16.418ZM40.7324 15.1641V15.1055L43.2168 11.25H43.3105V15.1641H40.7324ZM48.0098 16.9805C48.4961 16.9805 48.9121 16.5703 48.9121 16.0664C48.9121 15.5742 48.4961 15.1699 48.0098 15.1641C47.5059 15.1699 47.0898 15.5742 47.0957 16.0664C47.0898 16.5703 47.5059 16.9805 48.0098 16.9805ZM47.0957 11.8594C47.0898 12.3633 47.5059 12.7734 48.0098 12.7734C48.4961 12.7734 48.9121 12.3633 48.9121 11.8594C48.9121 11.3672 48.4961 10.9629 48.0098 10.957C47.5059 10.9629 47.0898 11.3672 47.0957 11.8594ZM53.3535 18.1172C55.1875 18.1172 56.4648 16.9043 56.459 15.2109C56.4648 13.5762 55.293 12.4043 53.7168 12.3984C53.0195 12.4043 52.4043 12.6738 52.0762 13.043H51.9941L52.252 10.793H56.0137V9.51562H50.998L50.4824 14.3203H51.9004C52.1641 13.8223 52.6445 13.5879 53.3066 13.5938C54.2852 13.5996 54.9883 14.2852 54.9824 15.2578C54.9883 16.1953 54.3027 16.8809 53.3535 16.8867C52.5508 16.8809 51.9004 16.3887 51.8535 15.7031H50.3652C50.4121 17.1035 51.6602 18.1172 53.3535 18.1172ZM60.7598 9.39844C58.8789 9.38672 57.6309 10.6465 57.6309 12.3047C57.6367 13.9102 58.8086 15.0645 60.3262 15.0586C61.2578 15.0645 62.0781 14.625 62.5059 13.8867H62.5996C62.5879 15.709 61.8965 16.793 60.666 16.793C59.8984 16.793 59.377 16.3652 59.2246 15.6914H57.7129C57.9004 17.0977 59.0312 18.1172 60.666 18.1172C62.752 18.1172 64.0762 16.4238 64.0762 13.5C64.0703 10.4004 62.418 9.41016 60.7598 9.39844ZM59.1191 12.2695C59.1074 11.3613 59.8164 10.6348 60.7715 10.6289C61.7207 10.6348 62.4121 11.3965 62.4121 12.2578C62.418 13.1367 61.6914 13.8984 60.748 13.8984C59.7988 13.8984 59.1191 13.1836 59.1191 12.2695Z" fill="white"/>
<mask id="mask0_1357_10551" style="mask-type:alpha" maskUnits="userSpaceOnUse" x="81" y="2" width="24" height="24">
<rect x="81" y="2" width="24" height="24" fill="#D9D9D9"/>
</mask>
<g mask="url(#mask0_1357_10551)">
<path d="M90.95 4.75C90.7333 4.75 90.5543 4.679 90.413 4.537C90.271 4.39567 90.2 4.21667 90.2 4C90.2 3.78333 90.271 3.604 90.413 3.462C90.5543 3.32067 90.7333 3.25 90.95 3.25H95.05C95.2667 3.25 95.446 3.32067 95.588 3.462C95.7293 3.604 95.8 3.78333 95.8 4C95.8 4.21667 95.7293 4.39567 95.588 4.537C95.446 4.679 95.2667 4.75 95.05 4.75H90.95ZM93 15.8C93.2167 15.8 93.396 15.729 93.538 15.587C93.6793 15.4457 93.75 15.2667 93.75 15.05V10.95C93.75 10.7333 93.6793 10.554 93.538 10.412C93.396 10.2707 93.2167 10.2 93 10.2C92.7833 10.2 92.6043 10.2707 92.463 10.412C92.321 10.554 92.25 10.7333 92.25 10.95V15.05C92.25 15.2667 92.321 15.4457 92.463 15.587C92.6043 15.729 92.7833 15.8 93 15.8ZM93 23.5C91.8333 23.5 90.7333 23.275 89.7 22.825C88.6667 22.375 87.7667 21.7667 87 21C86.2333 20.2333 85.625 19.3333 85.175 18.3C84.725 17.2667 84.5 16.1667 84.5 15C84.5 13.8333 84.725 12.7333 85.175 11.7C85.625 10.6667 86.2333 9.76667 87 9C87.7667 8.23333 88.6667 7.625 89.7 7.175C90.7333 6.725 91.8333 6.5 93 6.5C94 6.5 94.9627 6.67067 95.888 7.012C96.8127 7.354 97.675 7.84167 98.475 8.475L99.225 7.725C99.3583 7.59167 99.525 7.525 99.725 7.525C99.925 7.525 100.1 7.6 100.25 7.75C100.4 7.9 100.475 8.075 100.475 8.275C100.475 8.475 100.4 8.65 100.25 8.8L99.525 9.525C100.158 10.325 100.646 11.1877 100.988 12.113C101.329 13.0377 101.5 14 101.5 15C101.5 16.1667 101.275 17.2667 100.825 18.3C100.375 19.3333 99.7667 20.2333 99 21C98.2333 21.7667 97.3333 22.375 96.3 22.825C95.2667 23.275 94.1667 23.5 93 23.5Z" fill="#66FFA6"/>
</g>
</svg>
