<svg width="18" height="21" viewBox="0 0 18 21" fill="none" xmlns="http://www.w3.org/2000/svg">
<path d="M6.95 1.75C6.73333 1.75 6.55433 1.679 6.413 1.537C6.271 1.39567 6.2 1.21667 6.2 1C6.2 0.783333 6.271 0.604 6.413 0.462C6.55433 0.320667 6.73333 0.25 6.95 0.25H11.05C11.2667 0.25 11.446 0.320667 11.588 0.462C11.7293 0.604 11.8 0.783333 11.8 1C11.8 1.21667 11.7293 1.39567 11.588 1.537C11.446 1.679 11.2667 1.75 11.05 1.75H6.95ZM9 12.8C9.21667 12.8 9.396 12.729 9.538 12.587C9.67933 12.4457 9.75 12.2667 9.75 12.05V7.95C9.75 7.73333 9.67933 7.554 9.538 7.412C9.396 7.27067 9.21667 7.2 9 7.2C8.78333 7.2 8.60433 7.27067 8.463 7.412C8.321 7.554 8.25 7.73333 8.25 7.95V12.05C8.25 12.2667 8.321 12.4457 8.463 12.587C8.60433 12.729 8.78333 12.8 9 12.8ZM9 20.5C7.83333 20.5 6.73333 20.275 5.7 19.825C4.66667 19.375 3.76667 18.7667 3 18C2.23333 17.2333 1.625 16.3333 1.175 15.3C0.725 14.2667 0.5 13.1667 0.5 12C0.5 10.8333 0.725 9.73333 1.175 8.7C1.625 7.66667 2.23333 6.76667 3 6C3.76667 5.23333 4.66667 4.625 5.7 4.175C6.73333 3.725 7.83333 3.5 9 3.5C10 3.5 10.9627 3.67067 11.888 4.012C12.8127 4.354 13.675 4.84167 14.475 5.475L15.225 4.725C15.3583 4.59167 15.525 4.525 15.725 4.525C15.925 4.525 16.1 4.6 16.25 4.75C16.4 4.9 16.475 5.075 16.475 5.275C16.475 5.475 16.4 5.65 16.25 5.8L15.525 6.525C16.1583 7.325 16.646 8.18767 16.988 9.113C17.3293 10.0377 17.5 11 17.5 12C17.5 13.1667 17.275 14.2667 16.825 15.3C16.375 16.3333 15.7667 17.2333 15 18C14.2333 18.7667 13.3333 19.375 12.3 19.825C11.2667 20.275 10.1667 20.5 9 20.5Z" fill="current"/>
</svg>
