<svg width="16" height="18" viewBox="0 0 16 18" fill="none" xmlns="http://www.w3.org/2000/svg">
<path d="M3.23039 17.729C2.7304 17.7315 2.30452 17.5587 1.95275 17.2105C1.60098 16.8623 1.42383 16.4381 1.4213 15.9382L1.35698 3.23831L1.10699 3.23958C0.890324 3.24068 0.710967 3.17058 0.568916 3.0293C0.426202 2.88869 0.354297 2.71005 0.3532 2.49339C0.352103 2.27672 0.422195 2.09737 0.563477 1.95532C0.70409 1.8126 0.882728 1.7407 1.09939 1.7396L4.84934 1.72061C4.84808 1.47061 4.93436 1.26184 5.10818 1.09429C5.28266 0.926738 5.4949 0.842329 5.7449 0.841063L9.94485 0.819794C10.1948 0.818528 10.4079 0.900783 10.5841 1.06656C10.7596 1.23234 10.848 1.44023 10.8493 1.69022L14.5992 1.67123C14.8159 1.67014 14.9956 1.74023 15.1383 1.88151C15.2803 2.02212 15.3519 2.20076 15.353 2.41743C15.3541 2.63409 15.2843 2.81345 15.1437 2.95549C15.0025 3.09821 14.8235 3.17012 14.6068 3.17122L14.3568 3.17248L14.4211 15.8723C14.4237 16.3723 14.2508 16.7982 13.9026 17.15C13.5544 17.5017 13.1303 17.6789 12.6303 17.6814L3.23039 17.729ZM5.30884 13.4684C5.30994 13.6851 5.38185 13.8641 5.52456 14.0053C5.66661 14.146 5.84597 14.2157 6.06263 14.2146C6.27929 14.2135 6.45827 14.142 6.59955 13.9999C6.74016 13.8572 6.80992 13.6775 6.80882 13.4608L6.77084 5.96093C6.76974 5.74427 6.69817 5.5653 6.55612 5.42401C6.41341 5.2834 6.23372 5.21364 6.01705 5.21474C5.80039 5.21584 5.62175 5.28741 5.48113 5.42946C5.33985 5.57217 5.26976 5.75186 5.27086 5.96853L5.30884 13.4684ZM9.00879 13.4497C9.00989 13.6664 9.08146 13.8453 9.22352 13.9866C9.36623 14.1272 9.54592 14.197 9.76258 14.1959C9.97925 14.1948 10.1582 14.1232 10.2995 13.9812C10.4401 13.8385 10.5099 13.6588 10.5088 13.4421L10.4708 5.9422C10.4697 5.72553 10.3981 5.54656 10.2561 5.40528C10.1134 5.26466 9.93367 5.19491 9.71701 5.196C9.50034 5.1971 9.32137 5.26867 9.18009 5.41073C9.03947 5.55344 8.96972 5.73313 8.97081 5.94979L9.00879 13.4497Z" fill="white"/>
</svg>
