<svg width="165" height="140" viewBox="0 0 165 140" fill="none" xmlns="http://www.w3.org/2000/svg">
<g filter="url(#filter0_d_1357_10563)">
<path d="M30 35.25C30 32.3505 32.3505 30 35.25 30H129.75C132.649 30 135 32.3505 135 35.25V110H30V35.25Z" fill="#3B3B44" shape-rendering="crispEdges"/>
<rect x="72.875" y="32.3333" width="19.25" height="1.45833" rx="0.729167" fill="#5F5D6C"/>
<path d="M75.3359 38.8097C74.4587 38.812 73.807 39.2518 73.8092 39.9217C73.807 40.5392 74.3379 40.9517 75.0853 41.0269V41.7811H73.4629V42.1958H77.2272V41.7811H75.5866V41.0269C76.3431 40.9517 76.874 40.5392 76.8717 39.9217C76.874 39.2518 76.2201 38.812 75.3359 38.8097ZM74.306 39.9217C74.3037 39.491 74.7344 39.2176 75.3359 39.2199C75.9466 39.2176 76.375 39.491 76.375 39.9217C76.375 40.366 75.9466 40.6326 75.3359 40.6326C74.7344 40.6326 74.3037 40.366 74.306 39.9217ZM80.8229 39.466H78.4759V38.632H77.9792V39.8716H80.8229V39.466ZM77.4915 40.5916H81.2559V40.186H77.4915V40.5916ZM77.9382 41.2707H80.2943V41.5623H77.9427V42.647H80.9323V42.2505H78.4531V41.9315H80.7956V40.8787H77.9382V41.2707ZM85.8861 38.5682H85.3802V40.8149H85.8861V39.908H86.4648V39.4979H85.8861V38.5682ZM82.6413 39.2974H85.084V38.91H84.1178V38.5454H83.612V38.91H82.6413V39.2974ZM82.8509 40.0994C82.8509 40.521 83.2542 40.7739 83.8626 40.7739C84.4733 40.7739 84.8675 40.521 84.8698 40.0994C84.8675 39.6893 84.4733 39.4272 83.8626 39.425C83.2542 39.4272 82.8509 39.6893 82.8509 40.0994ZM83.1927 41.3664H85.3802V41.6398H83.1973V42.6606H86.0137V42.2824H83.6986V41.9907H85.8861V40.9972H83.1927V41.3664ZM83.3431 40.0994C83.3408 39.9035 83.5436 39.7873 83.8626 39.7896C84.1816 39.7873 84.3867 39.9035 84.3867 40.0994C84.3867 40.3022 84.1816 40.4071 83.8626 40.4093C83.5436 40.4071 83.3408 40.3022 83.3431 40.0994ZM88.944 38.7095C88.3151 38.7118 87.8503 39.0968 87.8503 39.6392C87.8503 40.1838 88.3151 40.5666 88.944 40.5688C89.5684 40.5666 90.0332 40.1838 90.0378 39.6392C90.0332 39.0968 89.5684 38.7118 88.944 38.7095ZM88.3424 39.6392C88.3424 39.327 88.5977 39.1265 88.944 39.1287C89.2904 39.1265 89.5433 39.327 89.5456 39.6392C89.5433 39.9582 89.2904 40.1587 88.944 40.1587C88.5977 40.1587 88.3424 39.9582 88.3424 39.6392ZM88.4746 41.2342H90.7031V41.5396H88.4837V42.647H91.332V42.2459H88.9805V41.9132H91.209V40.8377H88.4746V41.2342ZM90.6986 40.66H91.209V38.5773H90.6986V40.66Z" fill="white"/>
<mask id="mask0_1357_10563" style="mask-type:alpha" maskUnits="userSpaceOnUse" x="123" y="37" width="8" height="8">
<rect x="123.333" y="37.2917" width="7" height="7" fill="white"/>
</mask>
<g mask="url(#mask0_1357_10563)">
<path d="M126.833 42.7605C126.77 42.7605 126.718 42.7399 126.676 42.6987C126.635 42.6572 126.614 42.6049 126.614 42.5417V41.0105H125.083C125.02 41.0105 124.968 40.9898 124.926 40.9484C124.885 40.9072 124.864 40.8549 124.864 40.7917C124.864 40.7286 124.885 40.6762 124.926 40.6348C124.968 40.5936 125.02 40.573 125.083 40.573H126.614V39.0417C126.614 38.9786 126.635 38.9263 126.676 38.8851C126.718 38.8437 126.77 38.823 126.833 38.823C126.896 38.823 126.949 38.8437 126.99 38.8851C127.031 38.9263 127.052 38.9786 127.052 39.0417V40.573H128.583C128.646 40.573 128.699 40.5936 128.74 40.6348C128.781 40.6762 128.802 40.7286 128.802 40.7917C128.802 40.8549 128.781 40.9072 128.74 40.9484C128.699 40.9898 128.646 41.0105 128.583 41.0105H127.052V42.5417C127.052 42.6049 127.031 42.6572 126.99 42.6987C126.949 42.7399 126.896 42.7605 126.833 42.7605Z" fill="white"/>
</g>
<g clip-path="url(#clip0_1357_10563)">
<rect x="34.6665" y="48.9583" width="95.6667" height="14.5833" rx="2.33333" fill="#4B4A56"/>
<circle cx="39.9163" cy="56.2501" r="0.583333" fill="#FF5757"/>
<path d="M44.141 55.1645V54.6261H44.9624V54.4108H43.0603V54.6261H43.8977V55.1645C43.8957 55.7686 43.4152 56.4405 42.9367 56.6798L43.0922 56.8792C43.479 56.6738 43.8598 56.2013 44.0213 55.6729C44.1788 56.1634 44.5357 56.594 44.9265 56.7914L45.0741 56.592C44.5896 56.3568 44.139 55.7347 44.141 55.1645ZM45.4449 57.561H45.6961V55.7068H46.3022V55.4915H45.6961V54.0439H45.4449V57.561ZM49.4086 54.0439H49.1614V57.561H49.4086V54.0439ZM46.5734 56.6718L46.713 56.8792C47.8674 56.3209 48.3698 55.4237 48.3718 54.4307H46.7289V54.6381H48.1186C48.0548 55.4934 47.5384 56.2132 46.5734 56.6718ZM53.2686 56.8712H51.7653V55.9899H51.5181V56.8712H50.0466V57.0865H53.2686V56.8712ZM50.1902 55.7985L50.3058 56.0098C50.8083 55.8982 51.4164 55.5273 51.6417 54.997C51.865 55.5273 52.4771 55.8982 52.9815 56.0098L53.0972 55.7985C52.5409 55.6988 51.7693 55.1864 51.7693 54.5703V54.2912H51.5101V54.5703C51.5081 55.1924 50.7445 55.6988 50.1902 55.7985ZM56.5704 54.0439H56.3232V55.4915H55.7769V54.1396H55.5376V57.3776H55.7769V55.7028H56.3232V57.561H56.5704V54.0439ZM53.5916 56.612L53.7432 56.7954C54.762 56.2312 55.083 55.3738 55.083 54.5065H53.7152V54.7179H54.8378C54.7939 55.4556 54.449 56.1434 53.5916 56.612ZM58.309 55.0369V54.359H58.0578V55.0369C58.0558 55.6789 57.6052 56.3548 57.1167 56.604L57.2802 56.8034C57.675 56.5881 58.0339 56.1155 58.1874 55.5752C58.3429 56.0896 58.7038 56.5322 59.1025 56.7396L59.2541 56.5322C58.7656 56.3029 58.311 55.6629 58.309 55.0369ZM58.8713 55.4835H59.7565V57.565H60.0037V54.0439H59.7565V55.2721H58.8713V55.4835ZM62.7751 54.7139V54.5145H63.5926V54.3031H61.7025V54.5145H62.5319V54.7179C62.5279 55.2402 62.1272 55.6908 61.6187 55.8783L61.7543 56.0736C62.167 55.9181 62.508 55.5951 62.6555 55.1784C62.8031 55.5573 63.1261 55.8563 63.5288 56.0019L63.6564 55.8025C63.152 55.627 62.7771 55.2004 62.7751 54.7139ZM62.0733 56.5721H64.107V57.561H64.3582V56.3608H62.0733V56.5721ZM64.107 56.1614H64.3582V55.2163H64.9006V54.997H64.3582V54.0439H64.107V56.1614ZM66.3162 54.6222V54.2473H66.0729V54.6301C66.0689 55.1904 65.6742 55.6569 65.1558 55.8464L65.2913 56.0537C65.714 55.8862 66.055 55.5493 66.2005 55.1086C66.3501 55.4974 66.677 55.7965 67.0698 55.946L67.2134 55.7507C66.7109 55.5752 66.3142 55.1326 66.3162 54.6222ZM65.726 56.8991C65.722 57.3138 66.1646 57.5491 66.8904 57.5491C67.6161 57.5491 68.0588 57.3138 68.0588 56.8991C68.0588 56.4804 67.6161 56.2391 66.8904 56.2371C66.1646 56.2391 65.722 56.4804 65.726 56.8991ZM65.9732 56.8991C65.9692 56.618 66.3281 56.4425 66.8904 56.4445C67.4526 56.4425 67.8115 56.618 67.8115 56.8991C67.8115 57.1722 67.4526 57.3437 66.8904 57.3457C66.3281 57.3437 65.9692 57.1722 65.9732 56.8991ZM66.9741 55.0409H67.7956V56.1335H68.0468V54.0439H67.7956V54.8295H66.9741V55.0409ZM71.3844 54.0439H71.1332V57.561H71.3844V55.7307H71.9906V55.5154H71.3844V54.0439ZM68.6569 54.8335H70.7584V54.6222H69.8452V54.0798H69.594V54.6222H68.6569V54.8335ZM68.8762 55.954C68.8742 56.4266 69.2311 56.7515 69.7256 56.7515C70.2201 56.7515 70.5749 56.4266 70.5749 55.954C70.5749 55.4835 70.2201 55.1565 69.7256 55.1565C69.2311 55.1565 68.8742 55.4835 68.8762 55.954ZM69.1155 55.954C69.1135 55.6191 69.3727 55.3698 69.7256 55.3678C70.0765 55.3698 70.3337 55.6191 70.3357 55.954C70.3337 56.289 70.0765 56.5362 69.7256 56.5322C69.3727 56.5362 69.1135 56.289 69.1155 55.954ZM75.0969 54.0439H74.8497V57.561H75.0969V54.0439ZM72.2617 56.6718L72.4013 56.8792C73.5557 56.3209 74.0581 55.4237 74.0601 54.4307H72.4172V54.6381H73.8069C73.7431 55.4934 73.2267 56.2132 72.2617 56.6718Z" fill="white"/>
<mask id="mask1_1357_10563" style="mask-type:alpha" maskUnits="userSpaceOnUse" x="118" y="52" width="8" height="8">
<rect x="118.667" y="52.75" width="7" height="7" fill="#D9D9D9"/>
</mask>
<g mask="url(#mask1_1357_10563)">
<path d="M122.166 59.0207C121.782 59.0207 121.421 58.9478 121.084 58.8019C120.746 58.6561 120.453 58.4592 120.205 58.2113C119.957 57.9634 119.76 57.6704 119.614 57.3325C119.468 56.9948 119.396 56.6339 119.396 56.2498C119.396 55.8658 119.468 55.5048 119.614 55.1669C119.76 54.8291 119.957 54.5363 120.205 54.2884C120.453 54.0405 120.746 53.8436 121.084 53.6978C121.421 53.5519 121.782 53.479 122.166 53.479C122.55 53.479 122.911 53.5519 123.249 53.6978C123.587 53.8436 123.88 54.0405 124.128 54.2884C124.376 54.5363 124.573 54.8291 124.718 55.1669C124.864 55.5048 124.937 55.8658 124.937 56.2498C124.937 56.6339 124.864 56.9948 124.718 57.3325C124.573 57.6704 124.376 57.9634 124.128 58.2113C123.88 58.4592 123.587 58.6561 123.249 58.8019C122.911 58.9478 122.55 59.0207 122.166 59.0207ZM122.166 58.5832C122.818 58.5832 123.369 58.3571 123.822 57.905C124.274 57.453 124.5 56.9012 124.5 56.2498C124.5 55.5984 124.274 55.0467 123.822 54.5946C123.369 54.1425 122.818 53.9165 122.166 53.9165C121.515 53.9165 120.963 54.1425 120.511 54.5946C120.059 55.0467 119.833 55.5984 119.833 56.2498C119.833 56.9012 120.059 57.453 120.511 57.905C120.963 58.3571 121.515 58.5832 122.166 58.5832Z" fill="#E3E1EC"/>
</g>
</g>
<g clip-path="url(#clip1_1357_10563)">
<rect x="34.6665" y="65.875" width="95.6667" height="14.5833" rx="2.33333" fill="#4B4A56"/>
<circle cx="39.9163" cy="73.1668" r="0.583333" fill="#92CD6E"/>
<path d="M45.8317 72.8189H43.6704V72.2327H45.7161V72.0214H43.6704V71.4751H45.7878V71.2638H43.4152V73.0263H44.4639V73.8079H42.9885V74.0192H46.2105V73.8079H44.7152V73.0263H45.8317V72.8189ZM49.4086 73.2616H47.0599V73.4729H49.1574V74.4778H49.4086V73.2616ZM46.6093 71.9975C46.6073 72.488 46.9881 72.8189 47.5185 72.8189C48.0488 72.8189 48.4257 72.488 48.4277 71.9975C48.4257 71.511 48.0488 71.176 47.5185 71.176C46.9881 71.176 46.6073 71.511 46.6093 71.9975ZM46.8525 71.9975C46.8525 71.6466 47.1317 71.3934 47.5185 71.3953C47.9033 71.3934 48.1824 71.6466 48.1844 71.9975C48.1824 72.3504 47.9033 72.6056 47.5185 72.6036C47.1317 72.6056 46.8525 72.3504 46.8525 71.9975ZM49.1574 73.0622H49.4086V70.9607H49.1574V73.0622ZM53.9226 70.9607H53.6754V74.4778H53.9226V70.9607ZM51.0874 73.5885L51.227 73.7959C52.3814 73.2376 52.8838 72.3404 52.8858 71.3475H51.2429V71.5549H52.6326C52.5688 72.4102 52.0524 73.13 51.0874 73.5885ZM57.7667 72.5478H54.5606V72.7472H56.0361V73.11H54.9554V73.3054H57.1007V73.6563H54.9674V74.4339H57.4556V74.2306H55.2106V73.8438H57.344V73.11H56.2873V72.7472H57.7667V72.5478ZM54.748 72.165L54.8278 72.3643C55.3881 72.3105 55.9543 72.1211 56.1637 71.7582C56.371 72.1211 56.9392 72.3105 57.4995 72.3643L57.5793 72.165C56.9672 72.1211 56.3351 71.8898 56.3012 71.4831H57.4317V71.2797H56.2873V70.9328H56.04V71.2797H54.8996V71.4831H56.0261C55.9882 71.8898 55.3562 72.1211 54.748 72.165ZM61.3037 72.7791H58.0857V72.9904H59.589V73.748H59.8363V72.9904H61.3037V72.7791ZM58.5084 74.394H60.9448V74.1827H58.7596V73.3892H58.5084V74.394ZM58.5084 72.3364H60.881V71.1322H58.5084V72.3364ZM58.7556 72.1331V71.3395H60.6338V72.1331H58.7556ZM64.6134 70.9607H64.3702V74.4778H64.6134V70.9607ZM61.5868 73.5686L61.7463 73.756C62.1072 73.5307 62.3824 73.0981 62.508 72.5896C62.6316 73.0602 62.8948 73.4609 63.2497 73.6763L63.4052 73.4849C62.9287 73.2117 62.6256 72.5996 62.6276 71.9775V71.6027H63.3055V71.3914H61.6706V71.6027H62.3844V71.9775C62.3824 72.6355 62.0673 73.2835 61.5868 73.5686ZM63.0304 72.4561H63.6644V74.2864H63.9036V71.0524H63.6644V72.2447H63.0304V72.4561ZM69.0238 71.0564H66.4398V71.2598H67.006V72.0015H66.4438V72.2048H69.0158V72.0015H68.4575V71.2598H69.0238V71.0564ZM66.1327 72.7392H67.6082V73.118H66.5275V73.3174H68.6728V73.6603H66.5395V74.4339H69.0277V74.2306H66.7827V73.8517H68.9161V73.118H67.8594V72.7392H69.3388V72.5278H66.1327V72.7392ZM67.2572 72.0015V71.2598H68.2063V72.0015H67.2572ZM72.5528 70.9607H72.3056V74.4778H72.5528V70.9607ZM69.7176 73.5885L69.8572 73.7959C71.0116 73.2376 71.514 72.3404 71.516 71.3475H69.8731V71.5549H71.2628C71.199 72.4102 70.6826 73.13 69.7176 73.5885Z" fill="white"/>
<mask id="mask2_1357_10563" style="mask-type:alpha" maskUnits="userSpaceOnUse" x="118" y="69" width="8" height="8">
<rect x="118.667" y="69.6667" width="7" height="7" fill="#D9D9D9"/>
</mask>
<g mask="url(#mask2_1357_10563)">
<path d="M122.166 75.9374C121.782 75.9374 121.421 75.8645 121.084 75.7187C120.746 75.5728 120.453 75.376 120.205 75.128C119.957 74.8801 119.76 74.5872 119.614 74.2493C119.468 73.9115 119.396 73.5506 119.396 73.1666C119.396 72.7826 119.468 72.4216 119.614 72.0836C119.76 71.7459 119.957 71.453 120.205 71.2051C120.453 70.9572 120.746 70.7603 121.084 70.6145C121.421 70.4687 121.782 70.3958 122.166 70.3958C122.55 70.3958 122.911 70.4687 123.249 70.6145C123.587 70.7603 123.88 70.9572 124.128 71.2051C124.376 71.453 124.573 71.7459 124.718 72.0836C124.864 72.4216 124.937 72.7826 124.937 73.1666C124.937 73.5506 124.864 73.9115 124.718 74.2493C124.573 74.5872 124.376 74.8801 124.128 75.128C123.88 75.376 123.587 75.5728 123.249 75.7187C122.911 75.8645 122.55 75.9374 122.166 75.9374ZM122.166 75.4999C122.818 75.4999 123.369 75.2739 123.822 74.8218C124.274 74.3697 124.5 73.818 124.5 73.1666C124.5 72.5152 124.274 71.9635 123.822 71.5114C123.369 71.0593 122.818 70.8333 122.166 70.8333C121.515 70.8333 120.963 71.0593 120.511 71.5114C120.059 71.9635 119.833 72.5152 119.833 73.1666C119.833 73.818 120.059 74.3697 120.511 74.8218C120.963 75.2739 121.515 75.4999 122.166 75.4999Z" fill="#E3E1EC"/>
</g>
</g>
<g clip-path="url(#clip2_1357_10563)">
<rect x="34.6665" y="82.7917" width="95.6667" height="14.5833" rx="2.33333" fill="#4B4A56"/>
<circle cx="39.9163" cy="90.0836" r="0.583333" fill="#66FFA6"/>
<path d="M45.8317 89.7357H43.6704V89.1495H45.7161V88.9382H43.6704V88.3918H45.7878V88.1805H43.4152V89.943H44.4639V90.7246H42.9885V90.936H46.2105V90.7246H44.7152V89.943H45.8317V89.7357ZM49.4086 90.1783H47.0599V90.3896H49.1574V91.3945H49.4086V90.1783ZM46.6093 88.9142C46.6073 89.4047 46.9881 89.7357 47.5185 89.7357C48.0488 89.7357 48.4257 89.4047 48.4277 88.9142C48.4257 88.4277 48.0488 88.0928 47.5185 88.0928C46.9881 88.0928 46.6073 88.4277 46.6093 88.9142ZM46.8525 88.9142C46.8525 88.5633 47.1317 88.3101 47.5185 88.3121C47.9033 88.3101 48.1824 88.5633 48.1844 88.9142C48.1824 89.2671 47.9033 89.5223 47.5185 89.5203C47.1317 89.5223 46.8525 89.2671 46.8525 88.9142ZM49.1574 89.9789H49.4086V87.8774H49.1574V89.9789ZM53.7711 87.8735H53.5199V90.4255H53.7711V89.1615H54.3174V88.9501H53.7711V87.8735ZM51.207 89.7835H51.4742C52.198 89.7855 52.6226 89.7596 53.137 89.6599L53.1012 89.4486C52.6067 89.5483 52.188 89.5702 51.4742 89.5682H51.4583V88.3998H52.7662V88.1885H51.207V89.7835ZM51.5938 91.3108H53.9425V91.0994H51.8411V90.1703H51.5938V91.3108ZM55.4977 88.1566C54.9833 88.1586 54.6244 88.6331 54.6284 89.3728C54.6244 90.1145 54.9833 90.589 55.4977 90.589C55.9902 90.589 56.3391 90.1484 56.365 89.4526H57.2124V91.3985H57.4596V87.8774H57.2124V89.2452H56.363C56.3232 88.5793 55.9782 88.1586 55.4977 88.1566ZM54.8677 89.3728C54.8657 88.7846 55.1249 88.3819 55.4977 88.3799C55.8686 88.3819 56.1298 88.7846 56.1278 89.3728C56.1298 89.961 55.8686 90.3657 55.4977 90.3657C55.1249 90.3657 54.8657 89.961 54.8677 89.3728ZM60.2271 88.1127C59.6748 88.1147 59.286 88.4417 59.286 88.9262C59.286 89.3728 59.6149 89.6838 60.0994 89.7297V90.3817C59.7366 90.3936 59.3916 90.3936 59.0946 90.3936L59.1344 90.609C59.7745 90.609 60.6497 90.607 61.4632 90.4574L61.4433 90.27C61.0924 90.3239 60.7155 90.3558 60.3507 90.3717V89.7297C60.8372 89.6858 61.1661 89.3728 61.1681 88.9262C61.1661 88.4417 60.7793 88.1147 60.2271 88.1127ZM59.5332 88.9262C59.5312 88.5793 59.8223 88.334 60.2271 88.336C60.6298 88.334 60.9209 88.5793 60.9209 88.9262C60.9209 89.2711 60.6298 89.5203 60.2271 89.5164C59.8223 89.5203 59.5312 89.2711 59.5332 88.9262ZM61.6865 91.3985H61.9377V87.8774H61.6865V91.3985ZM65.8177 89.9071H62.5997V90.1225H64.0791V91.3945H64.3223V90.1225H65.8177V89.9071ZM62.9785 88.7906C62.9765 89.2592 63.469 89.5542 64.2027 89.5522C64.9364 89.5542 65.4269 89.2592 65.4269 88.7906C65.4269 88.3201 64.9364 88.025 64.2027 88.025C63.469 88.025 62.9765 88.3201 62.9785 88.7906ZM63.2337 88.7906C63.2317 88.4576 63.6285 88.2323 64.2027 88.2323C64.7749 88.2323 65.1697 88.4576 65.1717 88.7906C65.1697 89.1236 64.7749 89.3449 64.2027 89.3449C63.6285 89.3449 63.2317 89.1236 63.2337 88.7906ZM69.0238 87.8774H68.7765V91.3945H69.0238V87.8774ZM66.1886 90.5053L66.3281 90.7126C67.4825 90.1544 67.985 89.2572 67.987 88.2642H66.3441V88.4716H67.7338C67.67 89.3269 67.1536 90.0467 66.1886 90.5053Z" fill="white"/>
<mask id="mask3_1357_10563" style="mask-type:alpha" maskUnits="userSpaceOnUse" x="118" y="86" width="8" height="8">
<rect x="118.667" y="86.5835" width="7" height="7" fill="#D9D9D9"/>
</mask>
<g mask="url(#mask3_1357_10563)">
<path d="M122.166 92.8542C121.782 92.8542 121.421 92.7812 121.084 92.6354C120.746 92.4896 120.453 92.2927 120.205 92.0448C119.957 91.7969 119.76 91.5039 119.614 91.166C119.468 90.8282 119.396 90.4674 119.396 90.0833C119.396 89.6993 119.468 89.3383 119.614 89.0004C119.76 88.6626 119.957 88.3698 120.205 88.1219C120.453 87.874 120.746 87.6771 121.084 87.5312C121.421 87.3854 121.782 87.3125 122.166 87.3125C122.55 87.3125 122.911 87.3854 123.249 87.5312C123.587 87.6771 123.88 87.874 124.128 88.1219C124.376 88.3698 124.573 88.6626 124.718 89.0004C124.864 89.3383 124.937 89.6993 124.937 90.0833C124.937 90.4674 124.864 90.8282 124.718 91.166C124.573 91.5039 124.376 91.7969 124.128 92.0448C123.88 92.2927 123.587 92.4896 123.249 92.6354C122.911 92.7812 122.55 92.8542 122.166 92.8542ZM122.166 92.4167C122.818 92.4167 123.369 92.1906 123.822 91.7385C124.274 91.2865 124.5 90.7347 124.5 90.0833C124.5 89.4319 124.274 88.8802 123.822 88.4281C123.369 87.976 122.818 87.75 122.166 87.75C121.515 87.75 120.963 87.976 120.511 88.4281C120.059 88.8802 119.833 89.4319 119.833 90.0833C119.833 90.7347 120.059 91.2865 120.511 91.7385C120.963 92.1906 121.515 92.4167 122.166 92.4167Z" fill="#E3E1EC"/>
</g>
</g>
</g>
<defs>
<filter id="filter0_d_1357_10563" x="0.833334" y="0.833334" width="163.333" height="138.333" filterUnits="userSpaceOnUse" color-interpolation-filters="sRGB">
<feFlood flood-opacity="0" result="BackgroundImageFix"/>
<feColorMatrix in="SourceAlpha" type="matrix" values="0 0 0 0 0 0 0 0 0 0 0 0 0 0 0 0 0 0 127 0" result="hardAlpha"/>
<feOffset/>
<feGaussianBlur stdDeviation="14.5833"/>
<feComposite in2="hardAlpha" operator="out"/>
<feColorMatrix type="matrix" values="0 0 0 0 0 0 0 0 0 0 0 0 0 0 0 0 0 0 0.2 0"/>
<feBlend mode="normal" in2="BackgroundImageFix" result="effect1_dropShadow_1357_10563"/>
<feBlend mode="normal" in="SourceGraphic" in2="effect1_dropShadow_1357_10563" result="shape"/>
</filter>
<clipPath id="clip0_1357_10563">
<rect width="95.6667" height="14.5833" fill="white" transform="translate(34.6665 48.9583)"/>
</clipPath>
<clipPath id="clip1_1357_10563">
<rect width="95.6667" height="14.5833" fill="white" transform="translate(34.6665 65.875)"/>
</clipPath>
<clipPath id="clip2_1357_10563">
<rect width="95.6667" height="14.5833" fill="white" transform="translate(34.6665 82.7917)"/>
</clipPath>
</defs>
</svg>
