<svg width="106" height="63" viewBox="0 0 106 63" fill="none" xmlns="http://www.w3.org/2000/svg">
<rect width="105.041" height="62.7681" rx="5.12393" fill="#3B3B44"/>
<mask id="mask0_1357_10586" style="mask-type:alpha" maskUnits="userSpaceOnUse" x="5" y="5" width="8" height="8">
<rect x="5.12402" y="5.12402" width="7.68589" height="7.68589" fill="#D9D9D9"/>
</mask>
<g mask="url(#mask0_1357_10586)">
<path d="M9.43914 10.6082L7.99803 9.16713C7.97134 9.14044 7.95127 9.1097 7.93782 9.0749C7.92459 9.04031 7.91797 9.00434 7.91797 8.96698C7.91797 8.92961 7.92459 8.89353 7.93782 8.85873C7.95127 8.82415 7.97134 8.79351 7.99803 8.76682L9.43914 7.32572C9.48717 7.27768 9.54321 7.25366 9.60726 7.25366C9.67131 7.25366 9.72736 7.27768 9.77539 7.32572C9.82343 7.37375 9.84745 7.4298 9.84745 7.49385C9.84745 7.5579 9.82343 7.61394 9.77539 7.66198L8.47039 8.96698L9.77539 10.272C9.82343 10.32 9.84745 10.3761 9.84745 10.4401C9.84745 10.5042 9.82343 10.5602 9.77539 10.6082C9.72736 10.6563 9.67131 10.6803 9.60726 10.6803C9.54321 10.6803 9.48717 10.6563 9.43914 10.6082Z" fill="white"/>
</g>
<path d="M31.9126 9.96704H33.8003V9.55798H32.5919V9.53921L33.076 9.05884C33.6108 8.55408 33.7572 8.30639 33.759 8.00053C33.7572 7.54456 33.3837 7.21243 32.8283 7.21243C32.286 7.21243 31.8995 7.54644 31.9014 8.06058H32.3667C32.3648 7.78474 32.545 7.61023 32.8246 7.61023C33.0891 7.61023 33.2899 7.76973 33.2899 8.02305C33.2899 8.25198 33.1473 8.41335 32.8734 8.68731L31.9126 9.61427V9.96704ZM35.2302 10.0046C35.8832 10.0046 36.2735 9.49981 36.2735 8.6085C36.2735 7.72282 35.8813 7.21243 35.2302 7.21243C34.579 7.21243 34.185 7.72282 34.1869 8.6085C34.185 9.49793 34.5753 10.0046 35.2302 10.0046ZM34.6785 8.6085C34.6804 7.96113 34.8905 7.61962 35.2302 7.61774C35.5698 7.61962 35.78 7.96113 35.7818 8.6085C35.7818 9.2615 35.5698 9.59363 35.2302 9.59551C34.8886 9.59363 34.6785 9.2615 34.6785 8.6085ZM36.6825 9.96704H38.5702V9.55798H37.3618V9.53921L37.8459 9.05884C38.3807 8.55408 38.5271 8.30639 38.5289 8.00053C38.5271 7.54456 38.1536 7.21243 37.5982 7.21243C37.0559 7.21243 36.6694 7.54644 36.6713 8.06058H37.1366C37.1347 7.78474 37.3149 7.61023 37.5945 7.61023C37.859 7.61023 38.0598 7.76973 38.0598 8.02305C38.0598 8.25198 37.9172 8.41335 37.6433 8.68731L36.6825 9.61427V9.96704ZM38.998 9.96704H40.8857V9.55798H39.6773V9.53921L40.1614 9.05884C40.6962 8.55408 40.8426 8.30639 40.8445 8.00053C40.8426 7.54456 40.4692 7.21243 39.9137 7.21243C39.3715 7.21243 38.9849 7.54644 38.9868 8.06058H39.4521C39.4503 7.78474 39.6304 7.61023 39.91 7.61023C40.1746 7.61023 40.3754 7.76973 40.3754 8.02305C40.3754 8.25198 40.2327 8.41335 39.9588 8.68731L38.998 9.61427V9.96704ZM41.6138 9.99706C41.7695 9.99706 41.9028 9.86571 41.9028 9.70434C41.9028 9.54672 41.7695 9.41724 41.6138 9.41537C41.4524 9.41724 41.3192 9.54672 41.3211 9.70434C41.3192 9.86571 41.4524 9.99706 41.6138 9.99706ZM43.2538 10.0046C43.9068 10.0046 44.2971 9.49981 44.2971 8.6085C44.2971 7.72282 43.9049 7.21243 43.2538 7.21243C42.6027 7.21243 42.2086 7.72282 42.2105 8.6085C42.2086 9.49793 42.5989 10.0046 43.2538 10.0046ZM42.7021 8.6085C42.704 7.96113 42.9142 7.61962 43.2538 7.61774C43.5934 7.61962 43.8036 7.96113 43.8055 8.6085C43.8055 9.2615 43.5934 9.59363 43.2538 9.59551C42.9123 9.59363 42.7021 9.2615 42.7021 8.6085ZM45.6707 7.21243C45.0683 7.20868 44.6686 7.61211 44.6686 8.14314C44.6705 8.65729 45.0458 9.02695 45.5318 9.02507C45.8302 9.02695 46.0929 8.88621 46.2298 8.64978H46.2599C46.2561 9.23335 46.0347 9.58049 45.6406 9.58049C45.3948 9.58049 45.2278 9.44351 45.179 9.22772H44.6949C44.755 9.67807 45.1171 10.0046 45.6406 10.0046C46.3087 10.0046 46.7327 9.46228 46.7327 8.52594C46.7308 7.5333 46.2017 7.21618 45.6707 7.21243ZM45.1453 8.13188C45.1415 7.84104 45.3686 7.60836 45.6744 7.60648C45.9784 7.60836 46.1998 7.85229 46.1998 8.12813C46.2017 8.4096 45.969 8.65353 45.6669 8.65353C45.3629 8.65353 45.1453 8.42461 45.1453 8.13188ZM47.3294 9.99706C47.4852 9.99706 47.6184 9.86571 47.6184 9.70434C47.6184 9.54672 47.4852 9.41724 47.3294 9.41537C47.1681 9.41724 47.0348 9.54672 47.0367 9.70434C47.0348 9.86571 47.1681 9.99706 47.3294 9.99706ZM48.8456 7.24996H48.3765L47.7047 7.68529V8.13188L48.339 7.72657H48.354V9.96704H48.8456V7.24996ZM49.5061 9.96704H51.3938V9.55798H50.1854V9.53921L50.6695 9.05884C51.2043 8.55408 51.3506 8.30639 51.3525 8.00053C51.3506 7.54456 50.9772 7.21243 50.4218 7.21243C49.8795 7.21243 49.493 7.54644 49.4948 8.06058H49.9602C49.9583 7.78474 50.1385 7.61023 50.4181 7.61023C50.6826 7.61023 50.8834 7.76973 50.8834 8.02305C50.8834 8.25198 50.7408 8.41335 50.4668 8.68731L49.5061 9.61427V9.96704ZM52.7824 8.93875H53.1652C53.1614 8.71358 53.259 8.62351 53.3903 8.62351C53.4823 8.62351 53.5329 8.66667 53.653 8.76612C53.8407 8.93312 53.9758 9.00443 54.1522 9.00255C54.4768 9.00443 54.7245 8.76424 54.7113 8.282H54.3285C54.3323 8.49591 54.2366 8.59536 54.1034 8.59724C54.0096 8.59536 53.9514 8.54845 53.8407 8.45088C53.6455 8.282 53.5123 8.2182 53.3378 8.2182C53.0113 8.2182 52.7711 8.45651 52.7824 8.93875ZM56.1224 9.96704H58.0101V9.55798H56.8017V9.53921L57.2858 9.05884C57.8206 8.55408 57.967 8.30639 57.9688 8.00053C57.967 7.54456 57.5936 7.21243 57.0381 7.21243C56.4958 7.21243 56.1093 7.54644 56.1112 8.06058H56.5765C56.5746 7.78474 56.7548 7.61023 57.0344 7.61023C57.299 7.61023 57.4997 7.76973 57.4997 8.02305C57.4997 8.25198 57.3571 8.41335 57.0832 8.68731L56.1224 9.61427V9.96704ZM59.44 10.0046C60.093 10.0046 60.4833 9.49981 60.4833 8.6085C60.4833 7.72282 60.0911 7.21243 59.44 7.21243C58.7888 7.21243 58.3948 7.72282 58.3967 8.6085C58.3948 9.49793 58.7851 10.0046 59.44 10.0046ZM58.8883 8.6085C58.8902 7.96113 59.1003 7.61962 59.44 7.61774C59.7796 7.61962 59.9898 7.96113 59.9916 8.6085C59.9916 9.2615 59.7796 9.59363 59.44 9.59551C59.0985 9.59363 58.8883 9.2615 58.8883 8.6085ZM60.8923 9.96704H62.78V9.55798H61.5716V9.53921L62.0557 9.05884C62.5905 8.55408 62.7369 8.30639 62.7387 8.00053C62.7369 7.54456 62.3635 7.21243 61.808 7.21243C61.2657 7.21243 60.8792 7.54644 60.8811 8.06058H61.3464C61.3446 7.78474 61.5247 7.61023 61.8043 7.61023C62.0689 7.61023 62.2696 7.76973 62.2696 8.02305C62.2696 8.25198 62.127 8.41335 61.8531 8.68731L60.8923 9.61427V9.96704ZM63.2079 9.96704H65.0956V9.55798H63.8871V9.53921L64.3712 9.05884C64.906 8.55408 65.0524 8.30639 65.0543 8.00053C65.0524 7.54456 64.679 7.21243 64.1236 7.21243C63.5813 7.21243 63.1947 7.54644 63.1966 8.06058H63.662C63.6601 7.78474 63.8402 7.61023 64.1198 7.61023C64.3844 7.61023 64.5852 7.76973 64.5852 8.02305C64.5852 8.25198 64.4426 8.41335 64.1686 8.68731L63.2079 9.61427V9.96704ZM65.8236 9.99706C65.9794 9.99706 66.1126 9.86571 66.1126 9.70434C66.1126 9.54672 65.9794 9.41724 65.8236 9.41537C65.6622 9.41724 65.529 9.54672 65.5309 9.70434C65.529 9.86571 65.6622 9.99706 65.8236 9.99706ZM67.4636 10.0046C68.1166 10.0046 68.5069 9.49981 68.5069 8.6085C68.5069 7.72282 68.1147 7.21243 67.4636 7.21243C66.8125 7.21243 66.4184 7.72282 66.4203 8.6085C66.4184 9.49793 66.8087 10.0046 67.4636 10.0046ZM66.9119 8.6085C66.9138 7.96113 67.124 7.61962 67.4636 7.61774C67.8033 7.61962 68.0134 7.96113 68.0153 8.6085C68.0153 9.2615 67.8033 9.59363 67.4636 9.59551C67.1221 9.59363 66.9119 9.2615 66.9119 8.6085ZM69.8805 7.21243C69.2781 7.20868 68.8785 7.61211 68.8785 8.14314C68.8803 8.65729 69.2556 9.02695 69.7416 9.02507C70.04 9.02695 70.3027 8.88621 70.4397 8.64978H70.4697C70.4659 9.23335 70.2445 9.58049 69.8505 9.58049C69.6046 9.58049 69.4376 9.44351 69.3888 9.22772H68.9047C68.9648 9.67807 69.3269 10.0046 69.8505 10.0046C70.5185 10.0046 70.9425 9.46228 70.9425 8.52594C70.9407 7.5333 70.4115 7.21618 69.8805 7.21243ZM69.3551 8.13188C69.3513 7.84104 69.5784 7.60836 69.8842 7.60648C70.1882 7.60836 70.4096 7.85229 70.4096 8.12813C70.4115 8.4096 70.1788 8.65353 69.8767 8.65353C69.5727 8.65353 69.3551 8.42461 69.3551 8.13188ZM71.5392 9.99706C71.695 9.99706 71.8282 9.86571 71.8282 9.70434C71.8282 9.54672 71.695 9.41724 71.5392 9.41537C71.3779 9.41724 71.2446 9.54672 71.2465 9.70434C71.2446 9.86571 71.3779 9.99706 71.5392 9.99706ZM73.0554 7.24996H72.5863L71.9145 7.68529V8.13188L72.5488 7.72657H72.5638V9.96704H73.0554V7.24996ZM74.7029 10.0046C75.3034 10.0046 75.7331 9.68182 75.735 9.23898C75.7331 8.89372 75.4741 8.61225 75.1495 8.55971V8.5447C75.431 8.48465 75.6299 8.23884 75.6299 7.94049C75.6299 7.52017 75.2358 7.21243 74.7029 7.21243C74.1663 7.21243 73.7741 7.52017 73.7722 7.94049C73.7741 8.23696 73.9674 8.48465 74.2526 8.5447V8.55971C73.9261 8.61225 73.669 8.89372 73.6709 9.23898C73.669 9.68182 74.0968 10.0046 74.7029 10.0046ZM74.1738 9.19395C74.1719 8.93688 74.3971 8.74923 74.7029 8.75111C75.0088 8.74923 75.2302 8.93875 75.2321 9.19395C75.2302 9.44539 75.0219 9.61802 74.7029 9.61802C74.3802 9.61802 74.1719 9.44539 74.1738 9.19395ZM74.2488 7.98552C74.2507 7.75472 74.4308 7.59522 74.7029 7.59522C74.9694 7.59522 75.1533 7.75472 75.1533 7.98552C75.1533 8.22383 74.9637 8.38708 74.7029 8.38708C74.4383 8.38708 74.2507 8.22383 74.2488 7.98552Z" fill="white"/>
<mask id="mask1_1357_10586" style="mask-type:alpha" maskUnits="userSpaceOnUse" x="92" y="5" width="8" height="8">
<rect x="92.231" y="5.12402" width="7.68589" height="7.68589" fill="#D9D9D9"/>
</mask>
<g mask="url(#mask1_1357_10586)">
<path d="M95.073 10.6082C95.025 10.5602 95.001 10.5042 95.001 10.4401C95.001 10.3761 95.025 10.32 95.073 10.272L96.378 8.96698L95.073 7.66198C95.025 7.61394 95.001 7.5579 95.001 7.49385C95.001 7.4298 95.025 7.37375 95.073 7.32572C95.1211 7.27768 95.1771 7.25366 95.2412 7.25366C95.3052 7.25366 95.3613 7.27768 95.4093 7.32572L96.8504 8.76682C96.8771 8.79351 96.8972 8.82415 96.9106 8.85873C96.9238 8.89353 96.9305 8.92961 96.9305 8.96698C96.9305 9.00434 96.9238 9.04031 96.9106 9.0749C96.8972 9.1097 96.8771 9.14044 96.8504 9.16713L95.4093 10.6082C95.3613 10.6563 95.3052 10.6803 95.2412 10.6803C95.1771 10.6803 95.1211 10.6563 95.073 10.6082Z" fill="white"/>
</g>
<rect x="8.00635" y="27.8616" width="4.16319" height="23.3779" rx="2.0816" fill="#66FFA6"/>
<rect x="22.0972" y="29.4629" width="4.16319" height="21.7767" rx="2.0816" fill="#66FFA6"/>
<rect x="36.188" y="39.3904" width="4.48344" height="11.8491" rx="2.24172" fill="#3A4941"/>
<rect x="50.5991" y="20.4958" width="4.16319" height="30.7436" rx="2.0816" fill="#FF8058"/>
<rect x="64.6899" y="48.3572" width="4.16319" height="2.88221" rx="1.4411" fill="#4B4A56"/>
<rect x="78.7808" y="48.3572" width="4.16319" height="2.88221" rx="1.4411" fill="#4B4A56"/>
<rect x="92.8711" y="48.3572" width="4.16319" height="2.88221" rx="1.4411" fill="#4B4A56"/>
<path d="M10.975 54.2556H10.6248V55.5753H10.0962V55.788H10.6248V55.9037H10.975V54.2556ZM8.60135 55.2751L8.63888 55.519C8.85154 55.5206 9.08454 55.519 9.32691 55.5128V55.9068H9.67092V55.4987C9.93206 55.4862 10.1979 55.4627 10.4559 55.4283L10.4371 55.2094C9.83042 55.2704 9.14708 55.2751 8.60135 55.2751ZM8.80151 54.7247C8.80151 54.9874 9.08454 55.1469 9.51455 55.1469C9.93519 55.1469 10.2198 54.9874 10.2213 54.7247C10.2198 54.4682 9.93519 54.3009 9.51455 54.2994C9.08454 54.3009 8.80151 54.4682 8.80151 54.7247ZM9.01417 56.229H10.631V56.3978H9.02668V57.0546H11.0501V56.8075H9.36756V56.6261H10.975V55.9913H9.01417V56.229ZM9.13301 54.7247C9.12988 54.6058 9.27687 54.5292 9.51455 54.5308C9.74754 54.5292 9.8961 54.6058 9.8961 54.7247C9.8961 54.8435 9.74754 54.917 9.51455 54.9154C9.27687 54.917 9.12988 54.8435 9.13301 54.7247Z" fill="white"/>
<path d="M25.0491 54.2524H24.6988V57.0796H25.0491V55.7098H25.4462V55.419H25.0491V54.2524ZM22.7786 56.2946L22.8286 56.5824C23.3102 56.5824 23.9639 56.5777 24.5706 56.4666L24.5487 56.2133C24.3266 56.2446 24.089 56.2634 23.8513 56.2759V56.0241C24.1593 55.9725 24.3642 55.7802 24.3673 55.5128C24.3642 55.1938 24.0811 54.9827 23.6793 54.9811C23.2727 54.9827 22.9928 55.1938 22.9944 55.5128C22.9928 55.7786 23.193 55.9709 23.501 56.0241V56.2884C23.2414 56.2946 22.9928 56.2946 22.7786 56.2946ZM22.8317 54.8529H24.5174V54.5777H23.8513V54.265H23.501V54.5777H22.8317V54.8529ZM23.3227 55.5128C23.3212 55.3486 23.465 55.2485 23.6793 55.247C23.8904 55.2485 24.0327 55.3486 24.0327 55.5128C24.0327 55.6754 23.8904 55.7708 23.6793 55.7692C23.465 55.7708 23.3212 55.6754 23.3227 55.5128Z" fill="white"/>
<path d="M38.4945 54.487V54.3431H38.1286V54.487C38.1286 54.8451 37.7314 55.2032 37.1341 55.2814L37.2717 55.5628C37.747 55.4909 38.127 55.2548 38.3115 54.9358C38.496 55.2548 38.8776 55.4909 39.3576 55.5628L39.4952 55.2814C38.8917 55.2032 38.4929 54.842 38.4945 54.487ZM37.0215 56.0945H38.1317V57.0796H38.4757V56.0945H39.5984V55.8068H37.0215V56.0945Z" fill="white"/>
<path d="M53.4791 54.3682H51.5557V55.3502H52.3407V55.6473H51.2305V55.9287H53.8074V55.6473H52.691V55.3502H53.4791V54.3682ZM51.515 56.4416H53.1444V57.0796H53.4916V56.1664H51.515V56.4416ZM51.8935 55.0749V54.6402H53.135V55.0749H51.8935Z" fill="#66FFA6"/>
<path d="M67.7063 54.39H65.7579V54.6684H67.3592C67.3592 54.8748 67.3529 55.1062 67.2857 55.4127H65.439V55.6942H68.0222V55.4127H67.6375C67.7079 55.0796 67.7079 54.8294 67.7063 54.609V54.39ZM65.7486 57.0452H67.7032V56.0225H65.7486V57.0452ZM66.0895 56.7637V56.2946H67.3592V56.7637H66.0895Z" fill="#7E7C8C"/>
<path d="M81.9461 55.6754H80.3167V55.3376H81.8554V55.0624H80.3167V54.7434H81.9211V54.462H79.9633V55.9537H80.7608V56.4698H79.6474V56.7481H82.2307V56.4698H81.1111V55.9537H81.9461V55.6754Z" fill="#7E7C8C"/>
<path d="M94.6566 54.3431C94.225 54.3447 93.906 54.609 93.906 54.9811C93.906 55.3548 94.225 55.6175 94.6566 55.6191C95.085 55.6175 95.404 55.3548 95.4071 54.9811C95.404 54.609 95.085 54.3447 94.6566 54.3431ZM94.2437 54.9811C94.2437 54.7669 94.4189 54.6293 94.6566 54.6309C94.8942 54.6293 95.0678 54.7669 95.0694 54.9811C95.0678 55.2 94.8942 55.3376 94.6566 55.3376C94.4189 55.3376 94.2437 55.2 94.2437 54.9811ZM94.3344 56.0757H95.8637V56.2852H94.3407V57.0452H96.2953V56.77H94.6816V56.5417H96.2109V55.8036H94.3344V56.0757ZM95.8606 55.6817H96.2109V54.2524H95.8606V55.6817Z" fill="#7E7C8C"/>
</svg>
